G04 #@! TF.FileFunction,Legend,Top*
%FSLAX46Y46*%
G04 Gerber Fmt 4.6, Leading zero omitted, Abs format (unit mm)*
G04 Created by KiCad (PCBNEW 4.0.7-e2-6376~58~ubuntu16.04.1) date Wed Jul 11 09:03:16 2018*
%MOMM*%
%LPD*%
G01*
G04 APERTURE LIST*
%ADD10C,0.150000*%
%ADD11C,0.203200*%
%ADD12C,0.200000*%
%ADD13C,0.304800*%
%ADD14C,0.254000*%
G04 APERTURE END LIST*
D10*
D11*
X132203976Y-128729619D02*
X131623405Y-128729619D01*
X131913691Y-128729619D02*
X131913691Y-127713619D01*
X131816929Y-127858762D01*
X131720167Y-127955524D01*
X131623405Y-128003905D01*
X133074833Y-128052286D02*
X133074833Y-128729619D01*
X132832929Y-127665238D02*
X132591024Y-128390952D01*
X133219976Y-128390952D01*
X132203976Y-126189619D02*
X131623405Y-126189619D01*
X131913691Y-126189619D02*
X131913691Y-125173619D01*
X131816929Y-125318762D01*
X131720167Y-125415524D01*
X131623405Y-125463905D01*
X132542643Y-125173619D02*
X133171595Y-125173619D01*
X132832929Y-125560667D01*
X132978071Y-125560667D01*
X133074833Y-125609048D01*
X133123214Y-125657429D01*
X133171595Y-125754190D01*
X133171595Y-125996095D01*
X133123214Y-126092857D01*
X133074833Y-126141238D01*
X132978071Y-126189619D01*
X132687786Y-126189619D01*
X132591024Y-126141238D01*
X132542643Y-126092857D01*
X111787215Y-127810381D02*
X111835596Y-127762000D01*
X111932358Y-127713619D01*
X112174262Y-127713619D01*
X112271024Y-127762000D01*
X112319405Y-127810381D01*
X112367786Y-127907143D01*
X112367786Y-128003905D01*
X112319405Y-128149048D01*
X111738834Y-128729619D01*
X112367786Y-128729619D01*
X112367786Y-126189619D02*
X111787215Y-126189619D01*
X112077501Y-126189619D02*
X112077501Y-125173619D01*
X111980739Y-125318762D01*
X111883977Y-125415524D01*
X111787215Y-125463905D01*
D12*
X116205000Y-124460000D02*
X115570000Y-125095000D01*
X117475000Y-124460000D02*
X116205000Y-124460000D01*
X118110000Y-125095000D02*
X117475000Y-124460000D01*
X118745000Y-124460000D02*
X118110000Y-125095000D01*
X120015000Y-124460000D02*
X118745000Y-124460000D01*
X120650000Y-125095000D02*
X120015000Y-124460000D01*
X121285000Y-124460000D02*
X120650000Y-125095000D01*
X122555000Y-124460000D02*
X121285000Y-124460000D01*
X123190000Y-125095000D02*
X122555000Y-124460000D01*
X123825000Y-124460000D02*
X123190000Y-125095000D01*
X125095000Y-124460000D02*
X123825000Y-124460000D01*
X125730000Y-125095000D02*
X125095000Y-124460000D01*
X126365000Y-124460000D02*
X125730000Y-125095000D01*
X127635000Y-124460000D02*
X126365000Y-124460000D01*
X128270000Y-125095000D02*
X127635000Y-124460000D01*
X128905000Y-124460000D02*
X128270000Y-125095000D01*
X130175000Y-124460000D02*
X128905000Y-124460000D01*
X130810000Y-125095000D02*
X130175000Y-124460000D01*
X130810000Y-126365000D02*
X130810000Y-125095000D01*
X130175000Y-127000000D02*
X130810000Y-126365000D01*
X130810000Y-127635000D02*
X130175000Y-127000000D01*
X130810000Y-128905000D02*
X130810000Y-127635000D01*
X130175000Y-129540000D02*
X130810000Y-128905000D01*
X128905000Y-129540000D02*
X130175000Y-129540000D01*
X128270000Y-128905000D02*
X128905000Y-129540000D01*
X127635000Y-129540000D02*
X128270000Y-128905000D01*
X126365000Y-129540000D02*
X127635000Y-129540000D01*
X125730000Y-128905000D02*
X126365000Y-129540000D01*
X125095000Y-129540000D02*
X125730000Y-128905000D01*
X123825000Y-129540000D02*
X125095000Y-129540000D01*
X123190000Y-128905000D02*
X123825000Y-129540000D01*
X122555000Y-129540000D02*
X123190000Y-128905000D01*
X121285000Y-129540000D02*
X122555000Y-129540000D01*
X120650000Y-128905000D02*
X121285000Y-129540000D01*
X120015000Y-129540000D02*
X120650000Y-128905000D01*
X118745000Y-129540000D02*
X120015000Y-129540000D01*
X118110000Y-128905000D02*
X118745000Y-129540000D01*
X117475000Y-129540000D02*
X118110000Y-128905000D01*
X116205000Y-129540000D02*
X117475000Y-129540000D01*
X115570000Y-128905000D02*
X116205000Y-129540000D01*
X114935000Y-129540000D02*
X115570000Y-128905000D01*
X113665000Y-129540000D02*
X114935000Y-129540000D01*
X113030000Y-128905000D02*
X113665000Y-129540000D01*
X113030000Y-127635000D02*
X113030000Y-128905000D01*
X113665000Y-127000000D02*
X113030000Y-127635000D01*
X115570000Y-127000000D02*
X113030000Y-127000000D01*
X115570000Y-124460000D02*
X115570000Y-127000000D01*
X113030000Y-124460000D02*
X115570000Y-124460000D01*
X113030000Y-127000000D02*
X113030000Y-124460000D01*
X107315000Y-89852500D02*
X107632500Y-89535000D01*
X107632500Y-89852500D02*
X107315000Y-89852500D01*
X107315000Y-90170000D02*
X107632500Y-89852500D01*
X107632500Y-90170000D02*
X107315000Y-90170000D01*
X107315000Y-90487500D02*
X107632500Y-90170000D01*
X107632500Y-90487500D02*
X107315000Y-90487500D01*
X107315000Y-90805000D02*
X107632500Y-90487500D01*
X107632500Y-90805000D02*
X107315000Y-90805000D01*
X107315000Y-91122500D02*
X107632500Y-90805000D01*
X107632500Y-91122500D02*
X107315000Y-91122500D01*
X107315000Y-91440000D02*
X107632500Y-91122500D01*
X107632500Y-91440000D02*
X107315000Y-91440000D01*
X107315000Y-91757500D02*
X107632500Y-91440000D01*
X107632500Y-91757500D02*
X107315000Y-91757500D01*
X107315000Y-92075000D02*
X107632500Y-91757500D01*
X107632500Y-92075000D02*
X107315000Y-92075000D01*
X107315000Y-92392500D02*
X107632500Y-92075000D01*
X107632500Y-92392500D02*
X107315000Y-92392500D01*
X107315000Y-92710000D02*
X107632500Y-92392500D01*
X107632500Y-92710000D02*
X107315000Y-92710000D01*
X107315000Y-93027500D02*
X107632500Y-92710000D01*
X107632500Y-93027500D02*
X107315000Y-93027500D01*
X107315000Y-93345000D02*
X107632500Y-93027500D01*
X107632500Y-93345000D02*
X107315000Y-93345000D01*
X107315000Y-93662500D02*
X107632500Y-93345000D01*
X107632500Y-93662500D02*
X107315000Y-93662500D01*
X107315000Y-93980000D02*
X107632500Y-93662500D01*
X107632500Y-93980000D02*
X107315000Y-93980000D01*
X107315000Y-94297500D02*
X107632500Y-93980000D01*
X107632500Y-94297500D02*
X107315000Y-94297500D01*
X107315000Y-94615000D02*
X107632500Y-94297500D01*
X107632500Y-94615000D02*
X107315000Y-94615000D01*
X107315000Y-94932500D02*
X107632500Y-94615000D01*
X107632500Y-94932500D02*
X107315000Y-94932500D01*
X107315000Y-95250000D02*
X107632500Y-94932500D01*
X107632500Y-95250000D02*
X107315000Y-95250000D01*
X107315000Y-95567500D02*
X107632500Y-95250000D01*
X107632500Y-95567500D02*
X107315000Y-95567500D01*
X107315000Y-95885000D02*
X107632500Y-95567500D01*
X107632500Y-95885000D02*
X107315000Y-95885000D01*
X107315000Y-96202500D02*
X107632500Y-95885000D01*
X107632500Y-96202500D02*
X107315000Y-96202500D01*
X107315000Y-96520000D02*
X107632500Y-96202500D01*
X107632500Y-96520000D02*
X107315000Y-96520000D01*
X107315000Y-96837500D02*
X107632500Y-96520000D01*
X107632500Y-96837500D02*
X107315000Y-96837500D01*
X107315000Y-97155000D02*
X107632500Y-96837500D01*
X111125000Y-89852500D02*
X110807500Y-89535000D01*
X110807500Y-89852500D02*
X111125000Y-89852500D01*
X111125000Y-90170000D02*
X110807500Y-89852500D01*
X110807500Y-90170000D02*
X111125000Y-90170000D01*
X111125000Y-90487500D02*
X110807500Y-90170000D01*
X110807500Y-90487500D02*
X111125000Y-90487500D01*
X111125000Y-90805000D02*
X110807500Y-90487500D01*
X110807500Y-90805000D02*
X111125000Y-90805000D01*
X111125000Y-91122500D02*
X110807500Y-90805000D01*
X110807500Y-91122500D02*
X111125000Y-91122500D01*
X111125000Y-91440000D02*
X110807500Y-91122500D01*
X110807500Y-91440000D02*
X111125000Y-91440000D01*
X111125000Y-91757500D02*
X110807500Y-91440000D01*
X110807500Y-91757500D02*
X111125000Y-91757500D01*
X111125000Y-92075000D02*
X110807500Y-91757500D01*
X110807500Y-92075000D02*
X111125000Y-92075000D01*
X111125000Y-92392500D02*
X110807500Y-92075000D01*
X110807500Y-92392500D02*
X111125000Y-92392500D01*
X110807500Y-92710000D02*
X110807500Y-92392500D01*
X111125000Y-92392500D02*
X110807500Y-92710000D01*
X110807500Y-92710000D02*
X111125000Y-92392500D01*
X111125000Y-92710000D02*
X110807500Y-92710000D01*
X110807500Y-93027500D02*
X111125000Y-92710000D01*
X111125000Y-93027500D02*
X110807500Y-93027500D01*
X110807500Y-93345000D02*
X111125000Y-93027500D01*
X111125000Y-93345000D02*
X110807500Y-93345000D01*
X110807500Y-93662500D02*
X111125000Y-93345000D01*
X111125000Y-93662500D02*
X110807500Y-93662500D01*
X110807500Y-93980000D02*
X111125000Y-93662500D01*
X111125000Y-93980000D02*
X110807500Y-93980000D01*
X110807500Y-94297500D02*
X111125000Y-93980000D01*
X111125000Y-94297500D02*
X110807500Y-94297500D01*
X110807500Y-94615000D02*
X111125000Y-94297500D01*
X111125000Y-94615000D02*
X110807500Y-94615000D01*
X110807500Y-94932500D02*
X111125000Y-94615000D01*
X111125000Y-94932500D02*
X110807500Y-94932500D01*
X110807500Y-95250000D02*
X111125000Y-94932500D01*
X111125000Y-95250000D02*
X110807500Y-95250000D01*
X110807500Y-95567500D02*
X111125000Y-95250000D01*
X111125000Y-95567500D02*
X110807500Y-95567500D01*
X110807500Y-95885000D02*
X111125000Y-95567500D01*
X111125000Y-95885000D02*
X110807500Y-95885000D01*
X110807500Y-96202500D02*
X111125000Y-95885000D01*
X111125000Y-96202500D02*
X110807500Y-96202500D01*
X110807500Y-96520000D02*
X111125000Y-96202500D01*
X111125000Y-96520000D02*
X110807500Y-96520000D01*
X110807500Y-96837500D02*
X111125000Y-96520000D01*
X111125000Y-96837500D02*
X110807500Y-96837500D01*
X110807500Y-97155000D02*
X111125000Y-96837500D01*
X107315000Y-97155000D02*
X107632500Y-97155000D01*
X107315000Y-89535000D02*
X107315000Y-97155000D01*
X110807500Y-89535000D02*
X107315000Y-89535000D01*
X111125000Y-89535000D02*
X110807500Y-89535000D01*
X111125000Y-97155000D02*
X111125000Y-89535000D01*
X110807500Y-97155000D02*
X111125000Y-97155000D01*
X109855000Y-94932500D02*
X109220000Y-94932500D01*
X110172500Y-95250000D02*
X109855000Y-94932500D01*
X109855000Y-95250000D02*
X110172500Y-95250000D01*
X109537500Y-95250000D02*
X109855000Y-95250000D01*
X109537500Y-94932500D02*
X109537500Y-95250000D01*
X109537500Y-94615000D02*
X109537500Y-94932500D01*
X108902500Y-94615000D02*
X109537500Y-94615000D01*
X108902500Y-94297500D02*
X108902500Y-94615000D01*
X109220000Y-94297500D02*
X108902500Y-94297500D01*
X109220000Y-94615000D02*
X109220000Y-94297500D01*
X109220000Y-94932500D02*
X109220000Y-94615000D01*
X109537500Y-95250000D02*
X109220000Y-94932500D01*
X109537500Y-94932500D02*
X109537500Y-95250000D01*
X109855000Y-94932500D02*
X109537500Y-94932500D01*
X109855000Y-95567500D02*
X109855000Y-94932500D01*
X110172500Y-95567500D02*
X109855000Y-95567500D01*
X108902500Y-94297500D02*
X110172500Y-95567500D01*
X108902500Y-94615000D02*
X108902500Y-94297500D01*
X109855000Y-91757500D02*
X110172500Y-91440000D01*
X109220000Y-91757500D02*
X110172500Y-90805000D01*
X109220000Y-92392500D02*
X109855000Y-92392500D01*
X108585000Y-93662500D02*
X109220000Y-93027500D01*
X109220000Y-93662500D02*
X109855000Y-93027500D01*
X108585000Y-94297500D02*
X110172500Y-95885000D01*
X109220000Y-94297500D02*
X108585000Y-94297500D01*
X110172500Y-95250000D02*
X109220000Y-94297500D01*
X110172500Y-95885000D02*
X110172500Y-95250000D01*
X110490000Y-92392500D02*
X110807500Y-92392500D01*
X110490000Y-91757500D02*
X110490000Y-92392500D01*
X110490000Y-92075000D02*
X110490000Y-91757500D01*
X110807500Y-92075000D02*
X110490000Y-92075000D01*
X110807500Y-91757500D02*
X110807500Y-92075000D01*
X110490000Y-91757500D02*
X110807500Y-91757500D01*
X110172500Y-92075000D02*
X110490000Y-91757500D01*
X110807500Y-92075000D02*
X110172500Y-92075000D01*
X110807500Y-91757500D02*
X110807500Y-92075000D01*
X110490000Y-92075000D02*
X110807500Y-91757500D01*
X110807500Y-92392500D02*
X110490000Y-92075000D01*
X110490000Y-89535000D02*
X110490000Y-89852500D01*
X110172500Y-89535000D02*
X110490000Y-89535000D01*
X110172500Y-90170000D02*
X110172500Y-89535000D01*
X110172500Y-89852500D02*
X110172500Y-90170000D01*
X109855000Y-89535000D02*
X110172500Y-89852500D01*
X109855000Y-90487500D02*
X109855000Y-89535000D01*
X109537500Y-90805000D02*
X109855000Y-90487500D01*
X109537500Y-89535000D02*
X109537500Y-90805000D01*
X109220000Y-89535000D02*
X109537500Y-89535000D01*
X109220000Y-91122500D02*
X109220000Y-89535000D01*
X108902500Y-91440000D02*
X109220000Y-91122500D01*
X108902500Y-89535000D02*
X108902500Y-91440000D01*
X108585000Y-89535000D02*
X108902500Y-89535000D01*
X108585000Y-91757500D02*
X108585000Y-89535000D01*
X108267500Y-91757500D02*
X108585000Y-91757500D01*
X108267500Y-92392500D02*
X108267500Y-91757500D01*
X108585000Y-92392500D02*
X108267500Y-92392500D01*
X108585000Y-93027500D02*
X108585000Y-92392500D01*
X108267500Y-93345000D02*
X108585000Y-93027500D01*
X108267500Y-89535000D02*
X108267500Y-93345000D01*
X108267500Y-89852500D02*
X108267500Y-89535000D01*
X107950000Y-89535000D02*
X108267500Y-89852500D01*
X107950000Y-93662500D02*
X107950000Y-89535000D01*
X107632500Y-93662500D02*
X107950000Y-93662500D01*
X107950000Y-93662500D02*
X107632500Y-93662500D01*
X108267500Y-93345000D02*
X107950000Y-93662500D01*
X107632500Y-93345000D02*
X108267500Y-93345000D01*
X107632500Y-93027500D02*
X107632500Y-93345000D01*
X108585000Y-93027500D02*
X107632500Y-93027500D01*
X108902500Y-92710000D02*
X108585000Y-93027500D01*
X107632500Y-92710000D02*
X108902500Y-92710000D01*
X107632500Y-92392500D02*
X107632500Y-92710000D01*
X108585000Y-92392500D02*
X107632500Y-92392500D01*
X108267500Y-92075000D02*
X108585000Y-92392500D01*
X107632500Y-92075000D02*
X108267500Y-92075000D01*
X107632500Y-91757500D02*
X107632500Y-92075000D01*
X108585000Y-91757500D02*
X107632500Y-91757500D01*
X108902500Y-91440000D02*
X108585000Y-91757500D01*
X107632500Y-91440000D02*
X108902500Y-91440000D01*
X107632500Y-91122500D02*
X107632500Y-91440000D01*
X109220000Y-91122500D02*
X107632500Y-91122500D01*
X109537500Y-90805000D02*
X109220000Y-91122500D01*
X107632500Y-90805000D02*
X109537500Y-90805000D01*
X107632500Y-90487500D02*
X107632500Y-90805000D01*
X109855000Y-90487500D02*
X107632500Y-90487500D01*
X110172500Y-90170000D02*
X109855000Y-90487500D01*
X107632500Y-90170000D02*
X110172500Y-90170000D01*
X107632500Y-89852500D02*
X107632500Y-90170000D01*
X110807500Y-89852500D02*
X107632500Y-89852500D01*
X107632500Y-89852500D02*
X107950000Y-89535000D01*
X107632500Y-90170000D02*
X107632500Y-89852500D01*
X108267500Y-89535000D02*
X107632500Y-90170000D01*
X108585000Y-89535000D02*
X108267500Y-89535000D01*
X107632500Y-90487500D02*
X108585000Y-89535000D01*
X107632500Y-90805000D02*
X107632500Y-90487500D01*
X108902500Y-89535000D02*
X107632500Y-90805000D01*
X109220000Y-89535000D02*
X108902500Y-89535000D01*
X107632500Y-91122500D02*
X109220000Y-89535000D01*
X107632500Y-91440000D02*
X107632500Y-91122500D01*
X109537500Y-89535000D02*
X107632500Y-91440000D01*
X109855000Y-89535000D02*
X109537500Y-89535000D01*
X107632500Y-91757500D02*
X109855000Y-89535000D01*
X107632500Y-92075000D02*
X107632500Y-91757500D01*
X110172500Y-89535000D02*
X107632500Y-92075000D01*
X110490000Y-89535000D02*
X110172500Y-89535000D01*
X107632500Y-92392500D02*
X110490000Y-89535000D01*
X107632500Y-92710000D02*
X107632500Y-92392500D01*
X108267500Y-92075000D02*
X107632500Y-92710000D01*
X108267500Y-92392500D02*
X108267500Y-92075000D01*
X107632500Y-93027500D02*
X108267500Y-92392500D01*
X107632500Y-93345000D02*
X107632500Y-93027500D01*
X108585000Y-92392500D02*
X107632500Y-93345000D01*
X108585000Y-92710000D02*
X108585000Y-92392500D01*
X107632500Y-93662500D02*
X108585000Y-92710000D01*
X109855000Y-93980000D02*
X109537500Y-93980000D01*
X109855000Y-94297500D02*
X109855000Y-93980000D01*
X110172500Y-94297500D02*
X109855000Y-94297500D01*
X110172500Y-94615000D02*
X110172500Y-94297500D01*
X110490000Y-94615000D02*
X110172500Y-94615000D01*
X110490000Y-94297500D02*
X110490000Y-94615000D01*
X110172500Y-94297500D02*
X110490000Y-94297500D01*
X110172500Y-93980000D02*
X110172500Y-94297500D01*
X109855000Y-93980000D02*
X110172500Y-93980000D01*
X109855000Y-93662500D02*
X109855000Y-93980000D01*
X110172500Y-93662500D02*
X109855000Y-93662500D01*
X110172500Y-93980000D02*
X110172500Y-93662500D01*
X110490000Y-93980000D02*
X110172500Y-93980000D01*
X110490000Y-93662500D02*
X110490000Y-93980000D01*
X110172500Y-93662500D02*
X110490000Y-93662500D01*
X110172500Y-93345000D02*
X110172500Y-93662500D01*
X110490000Y-93345000D02*
X110172500Y-93345000D01*
X110807500Y-93345000D02*
X110490000Y-93345000D01*
X110807500Y-93662500D02*
X110807500Y-93345000D01*
X110490000Y-93662500D02*
X110807500Y-93662500D01*
X110490000Y-93980000D02*
X110490000Y-93662500D01*
X110807500Y-93980000D02*
X110490000Y-93980000D01*
X110807500Y-94297500D02*
X110807500Y-93980000D01*
X110490000Y-94297500D02*
X110807500Y-94297500D01*
X110490000Y-94615000D02*
X110490000Y-94297500D01*
X110807500Y-94615000D02*
X110490000Y-94615000D01*
X110807500Y-94932500D02*
X110807500Y-94615000D01*
X110490000Y-94932500D02*
X110807500Y-94932500D01*
X110490000Y-93027500D02*
X110490000Y-94932500D01*
X110807500Y-93027500D02*
X110490000Y-93027500D01*
X110807500Y-93345000D02*
X110807500Y-93027500D01*
X110490000Y-93027500D02*
X110807500Y-93345000D01*
X110490000Y-93345000D02*
X110490000Y-93027500D01*
X110807500Y-93662500D02*
X110490000Y-93345000D01*
X110807500Y-93980000D02*
X110807500Y-93662500D01*
X110172500Y-93345000D02*
X110807500Y-93980000D01*
X110172500Y-93662500D02*
X110172500Y-93345000D01*
X110807500Y-94297500D02*
X110172500Y-93662500D01*
X110807500Y-94615000D02*
X110807500Y-94297500D01*
X109855000Y-93662500D02*
X110807500Y-94615000D01*
X109855000Y-93980000D02*
X109855000Y-93662500D01*
X110807500Y-94932500D02*
X109855000Y-93980000D01*
X109855000Y-96520000D02*
X108585000Y-96520000D01*
X109855000Y-96202500D02*
X109855000Y-96520000D01*
X109537500Y-96202500D02*
X109855000Y-96202500D01*
X108585000Y-96202500D02*
X109537500Y-96202500D01*
X108585000Y-95885000D02*
X108585000Y-96202500D01*
X108902500Y-95885000D02*
X108585000Y-95885000D01*
X109220000Y-95885000D02*
X108902500Y-95885000D01*
X109220000Y-95567500D02*
X109220000Y-95885000D01*
X108902500Y-95567500D02*
X109220000Y-95567500D01*
X108267500Y-94932500D02*
X108902500Y-95567500D01*
X108585000Y-94932500D02*
X108267500Y-94932500D01*
X108585000Y-95250000D02*
X108585000Y-94932500D01*
X108902500Y-95250000D02*
X108585000Y-95250000D01*
X108902500Y-95567500D02*
X108902500Y-95250000D01*
X108585000Y-95567500D02*
X108902500Y-95567500D01*
X108585000Y-95250000D02*
X108585000Y-95567500D01*
X108267500Y-95250000D02*
X108585000Y-95250000D01*
X108267500Y-95567500D02*
X108267500Y-95250000D01*
X108585000Y-95567500D02*
X108267500Y-95567500D01*
X108585000Y-95885000D02*
X108585000Y-95567500D01*
X108267500Y-95885000D02*
X108585000Y-95885000D01*
X108267500Y-96202500D02*
X108267500Y-95885000D01*
X108585000Y-96202500D02*
X108267500Y-96202500D01*
X108585000Y-96520000D02*
X108585000Y-96202500D01*
X108267500Y-96520000D02*
X108585000Y-96520000D01*
X107950000Y-96520000D02*
X108267500Y-96520000D01*
X107950000Y-96202500D02*
X107950000Y-96520000D01*
X108267500Y-96202500D02*
X107950000Y-96202500D01*
X108267500Y-95885000D02*
X108267500Y-96202500D01*
X107950000Y-95885000D02*
X108267500Y-95885000D01*
X107950000Y-95567500D02*
X107950000Y-95885000D01*
X108267500Y-95567500D02*
X107950000Y-95567500D01*
X108267500Y-95250000D02*
X108267500Y-95567500D01*
X107950000Y-95250000D02*
X108267500Y-95250000D01*
X107950000Y-94932500D02*
X107950000Y-95250000D01*
X108267500Y-94932500D02*
X107950000Y-94932500D01*
X107950000Y-94615000D02*
X108267500Y-94932500D01*
X107632500Y-94297500D02*
X107950000Y-94615000D01*
X107950000Y-94297500D02*
X107632500Y-94297500D01*
X107950000Y-94615000D02*
X107950000Y-94297500D01*
X107632500Y-94615000D02*
X107950000Y-94615000D01*
X107632500Y-94932500D02*
X107632500Y-94615000D01*
X107950000Y-94932500D02*
X107632500Y-94932500D01*
X107950000Y-95250000D02*
X107950000Y-94932500D01*
X107632500Y-95250000D02*
X107950000Y-95250000D01*
X107632500Y-95567500D02*
X107632500Y-95250000D01*
X107950000Y-95567500D02*
X107632500Y-95567500D01*
X107950000Y-95885000D02*
X107950000Y-95567500D01*
X107632500Y-95885000D02*
X107950000Y-95885000D01*
X107632500Y-96202500D02*
X107632500Y-95885000D01*
X107950000Y-96202500D02*
X107632500Y-96202500D01*
X107950000Y-96520000D02*
X107950000Y-96202500D01*
X107632500Y-96520000D02*
X107950000Y-96520000D01*
X107632500Y-97155000D02*
X107632500Y-96520000D01*
X107950000Y-97155000D02*
X107632500Y-97155000D01*
X107950000Y-94615000D02*
X107950000Y-97155000D01*
X108267500Y-94615000D02*
X107950000Y-94615000D01*
X108267500Y-97155000D02*
X108267500Y-94615000D01*
X108585000Y-97155000D02*
X108267500Y-97155000D01*
X108585000Y-95567500D02*
X108585000Y-97155000D01*
X108902500Y-95567500D02*
X108585000Y-95567500D01*
X108902500Y-97155000D02*
X108902500Y-95567500D01*
X109220000Y-97155000D02*
X108902500Y-97155000D01*
X109220000Y-95885000D02*
X109220000Y-97155000D01*
X109537500Y-95885000D02*
X109220000Y-95885000D01*
X109537500Y-97155000D02*
X109537500Y-95885000D01*
X109855000Y-97155000D02*
X109537500Y-97155000D01*
X109855000Y-96520000D02*
X109855000Y-97155000D01*
X110172500Y-96520000D02*
X109855000Y-96520000D01*
X110172500Y-97155000D02*
X110172500Y-96520000D01*
X110490000Y-97155000D02*
X110172500Y-97155000D01*
X110490000Y-96837500D02*
X110490000Y-97155000D01*
X107950000Y-96837500D02*
X110490000Y-96837500D01*
X107632500Y-96837500D02*
X107950000Y-96837500D01*
X110490000Y-97155000D02*
X107632500Y-94297500D01*
X110172500Y-97155000D02*
X110490000Y-97155000D01*
X107632500Y-94615000D02*
X110172500Y-97155000D01*
X107632500Y-94932500D02*
X107632500Y-94615000D01*
X109855000Y-97155000D02*
X107632500Y-94932500D01*
X109537500Y-97155000D02*
X109855000Y-97155000D01*
X107632500Y-95250000D02*
X109537500Y-97155000D01*
X107632500Y-95567500D02*
X107632500Y-95250000D01*
X109220000Y-97155000D02*
X107632500Y-95567500D01*
X108902500Y-97155000D02*
X109220000Y-97155000D01*
X107632500Y-95885000D02*
X108902500Y-97155000D01*
X107632500Y-96202500D02*
X107632500Y-95885000D01*
X108585000Y-97155000D02*
X107632500Y-96202500D01*
X108267500Y-97155000D02*
X108585000Y-97155000D01*
X107632500Y-96520000D02*
X108267500Y-97155000D01*
X107632500Y-96837500D02*
X107632500Y-96520000D01*
X107950000Y-97155000D02*
X107632500Y-96837500D01*
X107632500Y-97155000D02*
X107950000Y-97155000D01*
X110807500Y-96837500D02*
X110490000Y-96837500D01*
X110490000Y-97155000D02*
X110807500Y-96837500D01*
X110490000Y-96837500D02*
X110807500Y-96520000D01*
X110807500Y-90170000D02*
X110490000Y-89852500D01*
X110172500Y-92075000D02*
X110807500Y-91440000D01*
X110807500Y-92710000D02*
X110172500Y-92075000D01*
X109537500Y-93980000D02*
X110807500Y-92710000D01*
X110807500Y-95250000D02*
X109537500Y-93980000D01*
X110807500Y-94932500D02*
X110807500Y-95250000D01*
X107632500Y-89535000D02*
X110807500Y-89535000D01*
X107632500Y-97155000D02*
X107632500Y-89535000D01*
X110807500Y-97155000D02*
X107632500Y-97155000D01*
X110807500Y-97155000D02*
X110807500Y-96837500D01*
X107632500Y-93980000D02*
X110807500Y-97155000D01*
X108902500Y-92710000D02*
X107632500Y-93980000D01*
X108267500Y-92075000D02*
X108902500Y-92710000D01*
X110807500Y-89535000D02*
X108267500Y-92075000D01*
X110807500Y-96837500D02*
X110807500Y-89535000D01*
D11*
X108719257Y-84757380D02*
X108767638Y-84805761D01*
X108816019Y-84950904D01*
X108816019Y-85047666D01*
X108767638Y-85192808D01*
X108670876Y-85289570D01*
X108574114Y-85337951D01*
X108380590Y-85386332D01*
X108235448Y-85386332D01*
X108041924Y-85337951D01*
X107945162Y-85289570D01*
X107848400Y-85192808D01*
X107800019Y-85047666D01*
X107800019Y-84950904D01*
X107848400Y-84805761D01*
X107896781Y-84757380D01*
X108816019Y-84176808D02*
X108767638Y-84273570D01*
X108719257Y-84321951D01*
X108622495Y-84370332D01*
X108332210Y-84370332D01*
X108235448Y-84321951D01*
X108187067Y-84273570D01*
X108138686Y-84176808D01*
X108138686Y-84031666D01*
X108187067Y-83934904D01*
X108235448Y-83886523D01*
X108332210Y-83838142D01*
X108622495Y-83838142D01*
X108719257Y-83886523D01*
X108767638Y-83934904D01*
X108816019Y-84031666D01*
X108816019Y-84176808D01*
X108138686Y-83402713D02*
X109154686Y-83402713D01*
X108187067Y-83402713D02*
X108138686Y-83305951D01*
X108138686Y-83112428D01*
X108187067Y-83015666D01*
X108235448Y-82967285D01*
X108332210Y-82918904D01*
X108622495Y-82918904D01*
X108719257Y-82967285D01*
X108767638Y-83015666D01*
X108816019Y-83112428D01*
X108816019Y-83305951D01*
X108767638Y-83402713D01*
X108138686Y-82580237D02*
X108816019Y-82338332D01*
X108138686Y-82096428D02*
X108816019Y-82338332D01*
X109057924Y-82435094D01*
X109106305Y-82483475D01*
X109154686Y-82580237D01*
X108816019Y-81709380D02*
X108138686Y-81709380D01*
X108332210Y-81709380D02*
X108235448Y-81660999D01*
X108187067Y-81612618D01*
X108138686Y-81515856D01*
X108138686Y-81419095D01*
X108816019Y-81080428D02*
X108138686Y-81080428D01*
X107800019Y-81080428D02*
X107848400Y-81128809D01*
X107896781Y-81080428D01*
X107848400Y-81032047D01*
X107800019Y-81080428D01*
X107896781Y-81080428D01*
X108138686Y-80161190D02*
X108961162Y-80161190D01*
X109057924Y-80209571D01*
X109106305Y-80257952D01*
X109154686Y-80354713D01*
X109154686Y-80499856D01*
X109106305Y-80596618D01*
X108767638Y-80161190D02*
X108816019Y-80257952D01*
X108816019Y-80451475D01*
X108767638Y-80548237D01*
X108719257Y-80596618D01*
X108622495Y-80644999D01*
X108332210Y-80644999D01*
X108235448Y-80596618D01*
X108187067Y-80548237D01*
X108138686Y-80451475D01*
X108138686Y-80257952D01*
X108187067Y-80161190D01*
X108816019Y-79677380D02*
X107800019Y-79677380D01*
X108816019Y-79241952D02*
X108283829Y-79241952D01*
X108187067Y-79290333D01*
X108138686Y-79387095D01*
X108138686Y-79532237D01*
X108187067Y-79628999D01*
X108235448Y-79677380D01*
X108138686Y-78903285D02*
X108138686Y-78516237D01*
X107800019Y-78758142D02*
X108670876Y-78758142D01*
X108767638Y-78709761D01*
X108816019Y-78612999D01*
X108816019Y-78516237D01*
X109203067Y-77113191D02*
X109154686Y-77161571D01*
X109009543Y-77258333D01*
X108912781Y-77306714D01*
X108767638Y-77355095D01*
X108525733Y-77403476D01*
X108332210Y-77403476D01*
X108090305Y-77355095D01*
X107945162Y-77306714D01*
X107848400Y-77258333D01*
X107703257Y-77161571D01*
X107654876Y-77113191D01*
X108719257Y-76145572D02*
X108767638Y-76193953D01*
X108816019Y-76339096D01*
X108816019Y-76435858D01*
X108767638Y-76581000D01*
X108670876Y-76677762D01*
X108574114Y-76726143D01*
X108380590Y-76774524D01*
X108235448Y-76774524D01*
X108041924Y-76726143D01*
X107945162Y-76677762D01*
X107848400Y-76581000D01*
X107800019Y-76435858D01*
X107800019Y-76339096D01*
X107848400Y-76193953D01*
X107896781Y-76145572D01*
X109203067Y-75806905D02*
X109154686Y-75758524D01*
X109009543Y-75661762D01*
X108912781Y-75613381D01*
X108767638Y-75565000D01*
X108525733Y-75516619D01*
X108332210Y-75516619D01*
X108090305Y-75565000D01*
X107945162Y-75613381D01*
X107848400Y-75661762D01*
X107703257Y-75758524D01*
X107654876Y-75806905D01*
X107896781Y-74307096D02*
X107848400Y-74258715D01*
X107800019Y-74161953D01*
X107800019Y-73920049D01*
X107848400Y-73823287D01*
X107896781Y-73774906D01*
X107993543Y-73726525D01*
X108090305Y-73726525D01*
X108235448Y-73774906D01*
X108816019Y-74355477D01*
X108816019Y-73726525D01*
X107800019Y-73097572D02*
X107800019Y-73000811D01*
X107848400Y-72904049D01*
X107896781Y-72855668D01*
X107993543Y-72807287D01*
X108187067Y-72758906D01*
X108428971Y-72758906D01*
X108622495Y-72807287D01*
X108719257Y-72855668D01*
X108767638Y-72904049D01*
X108816019Y-73000811D01*
X108816019Y-73097572D01*
X108767638Y-73194334D01*
X108719257Y-73242715D01*
X108622495Y-73291096D01*
X108428971Y-73339477D01*
X108187067Y-73339477D01*
X107993543Y-73291096D01*
X107896781Y-73242715D01*
X107848400Y-73194334D01*
X107800019Y-73097572D01*
X108816019Y-71791287D02*
X108816019Y-72371858D01*
X108816019Y-72081572D02*
X107800019Y-72081572D01*
X107945162Y-72178334D01*
X108041924Y-72275096D01*
X108090305Y-72371858D01*
X108235448Y-71210715D02*
X108187067Y-71307477D01*
X108138686Y-71355858D01*
X108041924Y-71404239D01*
X107993543Y-71404239D01*
X107896781Y-71355858D01*
X107848400Y-71307477D01*
X107800019Y-71210715D01*
X107800019Y-71017192D01*
X107848400Y-70920430D01*
X107896781Y-70872049D01*
X107993543Y-70823668D01*
X108041924Y-70823668D01*
X108138686Y-70872049D01*
X108187067Y-70920430D01*
X108235448Y-71017192D01*
X108235448Y-71210715D01*
X108283829Y-71307477D01*
X108332210Y-71355858D01*
X108428971Y-71404239D01*
X108622495Y-71404239D01*
X108719257Y-71355858D01*
X108767638Y-71307477D01*
X108816019Y-71210715D01*
X108816019Y-71017192D01*
X108767638Y-70920430D01*
X108719257Y-70872049D01*
X108622495Y-70823668D01*
X108428971Y-70823668D01*
X108332210Y-70872049D01*
X108283829Y-70920430D01*
X108235448Y-71017192D01*
X110543219Y-83813951D02*
X109527219Y-83813951D01*
X110252933Y-83475285D01*
X109527219Y-83136618D01*
X110543219Y-83136618D01*
X110543219Y-82652808D02*
X109865886Y-82652808D01*
X109527219Y-82652808D02*
X109575600Y-82701189D01*
X109623981Y-82652808D01*
X109575600Y-82604427D01*
X109527219Y-82652808D01*
X109623981Y-82652808D01*
X110494838Y-81733570D02*
X110543219Y-81830332D01*
X110543219Y-82023855D01*
X110494838Y-82120617D01*
X110446457Y-82168998D01*
X110349695Y-82217379D01*
X110059410Y-82217379D01*
X109962648Y-82168998D01*
X109914267Y-82120617D01*
X109865886Y-82023855D01*
X109865886Y-81830332D01*
X109914267Y-81733570D01*
X110543219Y-81298141D02*
X109527219Y-81298141D01*
X110543219Y-80862713D02*
X110011029Y-80862713D01*
X109914267Y-80911094D01*
X109865886Y-81007856D01*
X109865886Y-81152998D01*
X109914267Y-81249760D01*
X109962648Y-81298141D01*
X110543219Y-79943475D02*
X110011029Y-79943475D01*
X109914267Y-79991856D01*
X109865886Y-80088618D01*
X109865886Y-80282141D01*
X109914267Y-80378903D01*
X110494838Y-79943475D02*
X110543219Y-80040237D01*
X110543219Y-80282141D01*
X110494838Y-80378903D01*
X110398076Y-80427284D01*
X110301314Y-80427284D01*
X110204552Y-80378903D01*
X110156171Y-80282141D01*
X110156171Y-80040237D01*
X110107790Y-79943475D01*
X110494838Y-79072618D02*
X110543219Y-79169380D01*
X110543219Y-79362903D01*
X110494838Y-79459665D01*
X110398076Y-79508046D01*
X110011029Y-79508046D01*
X109914267Y-79459665D01*
X109865886Y-79362903D01*
X109865886Y-79169380D01*
X109914267Y-79072618D01*
X110011029Y-79024237D01*
X110107790Y-79024237D01*
X110204552Y-79508046D01*
X110543219Y-78443665D02*
X110494838Y-78540427D01*
X110398076Y-78588808D01*
X109527219Y-78588808D01*
X110543219Y-77282523D02*
X109527219Y-77282523D01*
X110543219Y-76701952D02*
X109962648Y-77137380D01*
X109527219Y-76701952D02*
X110107790Y-77282523D01*
X110543219Y-76266523D02*
X109865886Y-76266523D01*
X109527219Y-76266523D02*
X109575600Y-76314904D01*
X109623981Y-76266523D01*
X109575600Y-76218142D01*
X109527219Y-76266523D01*
X109623981Y-76266523D01*
X110494838Y-75831094D02*
X110543219Y-75734332D01*
X110543219Y-75540808D01*
X110494838Y-75444047D01*
X110398076Y-75395666D01*
X110349695Y-75395666D01*
X110252933Y-75444047D01*
X110204552Y-75540808D01*
X110204552Y-75685951D01*
X110156171Y-75782713D01*
X110059410Y-75831094D01*
X110011029Y-75831094D01*
X109914267Y-75782713D01*
X109865886Y-75685951D01*
X109865886Y-75540808D01*
X109914267Y-75444047D01*
X110494838Y-74573190D02*
X110543219Y-74669952D01*
X110543219Y-74863475D01*
X110494838Y-74960237D01*
X110398076Y-75008618D01*
X110011029Y-75008618D01*
X109914267Y-74960237D01*
X109865886Y-74863475D01*
X109865886Y-74669952D01*
X109914267Y-74573190D01*
X110011029Y-74524809D01*
X110107790Y-74524809D01*
X110204552Y-75008618D01*
X110543219Y-73944237D02*
X110494838Y-74040999D01*
X110398076Y-74089380D01*
X109527219Y-74089380D01*
X110494838Y-73170143D02*
X110543219Y-73266905D01*
X110543219Y-73460428D01*
X110494838Y-73557190D01*
X110398076Y-73605571D01*
X110011029Y-73605571D01*
X109914267Y-73557190D01*
X109865886Y-73460428D01*
X109865886Y-73266905D01*
X109914267Y-73170143D01*
X110011029Y-73121762D01*
X110107790Y-73121762D01*
X110204552Y-73605571D01*
X109865886Y-72783095D02*
X110543219Y-72541190D01*
X109865886Y-72299286D01*
D13*
X106099429Y-99731286D02*
X104575429Y-99731286D01*
X105664000Y-99223286D01*
X104575429Y-98715286D01*
X106099429Y-98715286D01*
X106099429Y-97989572D02*
X105083429Y-97989572D01*
X104575429Y-97989572D02*
X104648000Y-98062143D01*
X104720571Y-97989572D01*
X104648000Y-97917000D01*
X104575429Y-97989572D01*
X104720571Y-97989572D01*
X105083429Y-97263858D02*
X106099429Y-97263858D01*
X105228571Y-97263858D02*
X105156000Y-97191286D01*
X105083429Y-97046144D01*
X105083429Y-96828429D01*
X105156000Y-96683286D01*
X105301143Y-96610715D01*
X106099429Y-96610715D01*
X106099429Y-95885001D02*
X105083429Y-95885001D01*
X104575429Y-95885001D02*
X104648000Y-95957572D01*
X104720571Y-95885001D01*
X104648000Y-95812429D01*
X104575429Y-95885001D01*
X104720571Y-95885001D01*
X106099429Y-95159287D02*
X104575429Y-95159287D01*
X105664000Y-94651287D01*
X104575429Y-94143287D01*
X106099429Y-94143287D01*
X106099429Y-92764430D02*
X105301143Y-92764430D01*
X105156000Y-92837001D01*
X105083429Y-92982144D01*
X105083429Y-93272430D01*
X105156000Y-93417573D01*
X106026857Y-92764430D02*
X106099429Y-92909573D01*
X106099429Y-93272430D01*
X106026857Y-93417573D01*
X105881714Y-93490144D01*
X105736571Y-93490144D01*
X105591429Y-93417573D01*
X105518857Y-93272430D01*
X105518857Y-92909573D01*
X105446286Y-92764430D01*
X106099429Y-92183859D02*
X105083429Y-91385573D01*
X105083429Y-92183859D02*
X106099429Y-91385573D01*
X105228571Y-89426145D02*
X105156000Y-89571287D01*
X105083429Y-89643859D01*
X104938286Y-89716430D01*
X104865714Y-89716430D01*
X104720571Y-89643859D01*
X104648000Y-89571287D01*
X104575429Y-89426145D01*
X104575429Y-89135859D01*
X104648000Y-88990716D01*
X104720571Y-88918145D01*
X104865714Y-88845573D01*
X104938286Y-88845573D01*
X105083429Y-88918145D01*
X105156000Y-88990716D01*
X105228571Y-89135859D01*
X105228571Y-89426145D01*
X105301143Y-89571287D01*
X105373714Y-89643859D01*
X105518857Y-89716430D01*
X105809143Y-89716430D01*
X105954286Y-89643859D01*
X106026857Y-89571287D01*
X106099429Y-89426145D01*
X106099429Y-89135859D01*
X106026857Y-88990716D01*
X105954286Y-88918145D01*
X105809143Y-88845573D01*
X105518857Y-88845573D01*
X105373714Y-88918145D01*
X105301143Y-88990716D01*
X105228571Y-89135859D01*
X104575429Y-87902144D02*
X104575429Y-87757001D01*
X104648000Y-87611858D01*
X104720571Y-87539287D01*
X104865714Y-87466716D01*
X105156000Y-87394144D01*
X105518857Y-87394144D01*
X105809143Y-87466716D01*
X105954286Y-87539287D01*
X106026857Y-87611858D01*
X106099429Y-87757001D01*
X106099429Y-87902144D01*
X106026857Y-88047287D01*
X105954286Y-88119858D01*
X105809143Y-88192430D01*
X105518857Y-88265001D01*
X105156000Y-88265001D01*
X104865714Y-88192430D01*
X104720571Y-88119858D01*
X104648000Y-88047287D01*
X104575429Y-87902144D01*
X105228571Y-86523287D02*
X105156000Y-86668429D01*
X105083429Y-86741001D01*
X104938286Y-86813572D01*
X104865714Y-86813572D01*
X104720571Y-86741001D01*
X104648000Y-86668429D01*
X104575429Y-86523287D01*
X104575429Y-86233001D01*
X104648000Y-86087858D01*
X104720571Y-86015287D01*
X104865714Y-85942715D01*
X104938286Y-85942715D01*
X105083429Y-86015287D01*
X105156000Y-86087858D01*
X105228571Y-86233001D01*
X105228571Y-86523287D01*
X105301143Y-86668429D01*
X105373714Y-86741001D01*
X105518857Y-86813572D01*
X105809143Y-86813572D01*
X105954286Y-86741001D01*
X106026857Y-86668429D01*
X106099429Y-86523287D01*
X106099429Y-86233001D01*
X106026857Y-86087858D01*
X105954286Y-86015287D01*
X105809143Y-85942715D01*
X105518857Y-85942715D01*
X105373714Y-86015287D01*
X105301143Y-86087858D01*
X105228571Y-86233001D01*
X104575429Y-84563858D02*
X104575429Y-85289572D01*
X105301143Y-85362143D01*
X105228571Y-85289572D01*
X105156000Y-85144429D01*
X105156000Y-84781572D01*
X105228571Y-84636429D01*
X105301143Y-84563858D01*
X105446286Y-84491286D01*
X105809143Y-84491286D01*
X105954286Y-84563858D01*
X106026857Y-84636429D01*
X106099429Y-84781572D01*
X106099429Y-85144429D01*
X106026857Y-85289572D01*
X105954286Y-85362143D01*
X106099429Y-82677000D02*
X104575429Y-82677000D01*
X106099429Y-81806143D02*
X105228571Y-82459286D01*
X104575429Y-81806143D02*
X105446286Y-82677000D01*
X106026857Y-80572428D02*
X106099429Y-80717571D01*
X106099429Y-81007857D01*
X106026857Y-81153000D01*
X105881714Y-81225571D01*
X105301143Y-81225571D01*
X105156000Y-81153000D01*
X105083429Y-81007857D01*
X105083429Y-80717571D01*
X105156000Y-80572428D01*
X105301143Y-80499857D01*
X105446286Y-80499857D01*
X105591429Y-81225571D01*
X105083429Y-79991857D02*
X106099429Y-79629000D01*
X105083429Y-79266142D02*
X106099429Y-79629000D01*
X106462286Y-79774142D01*
X106534857Y-79846714D01*
X106607429Y-79991857D01*
X105083429Y-78685571D02*
X106607429Y-78685571D01*
X105156000Y-78685571D02*
X105083429Y-78540428D01*
X105083429Y-78250142D01*
X105156000Y-78104999D01*
X105228571Y-78032428D01*
X105373714Y-77959857D01*
X105809143Y-77959857D01*
X105954286Y-78032428D01*
X106026857Y-78104999D01*
X106099429Y-78250142D01*
X106099429Y-78540428D01*
X106026857Y-78685571D01*
X106099429Y-76653571D02*
X105301143Y-76653571D01*
X105156000Y-76726142D01*
X105083429Y-76871285D01*
X105083429Y-77161571D01*
X105156000Y-77306714D01*
X106026857Y-76653571D02*
X106099429Y-76798714D01*
X106099429Y-77161571D01*
X106026857Y-77306714D01*
X105881714Y-77379285D01*
X105736571Y-77379285D01*
X105591429Y-77306714D01*
X105518857Y-77161571D01*
X105518857Y-76798714D01*
X105446286Y-76653571D01*
X106099429Y-75274714D02*
X104575429Y-75274714D01*
X106026857Y-75274714D02*
X106099429Y-75419857D01*
X106099429Y-75710143D01*
X106026857Y-75855285D01*
X105954286Y-75927857D01*
X105809143Y-76000428D01*
X105373714Y-76000428D01*
X105228571Y-75927857D01*
X105156000Y-75855285D01*
X105083429Y-75710143D01*
X105083429Y-75419857D01*
X105156000Y-75274714D01*
X104575429Y-73605571D02*
X106099429Y-73097571D01*
X104575429Y-72589571D01*
X106099429Y-71283285D02*
X106099429Y-72154142D01*
X106099429Y-71718714D02*
X104575429Y-71718714D01*
X104793143Y-71863857D01*
X104938286Y-72008999D01*
X105010857Y-72154142D01*
X105954286Y-70630142D02*
X106026857Y-70557570D01*
X106099429Y-70630142D01*
X106026857Y-70702713D01*
X105954286Y-70630142D01*
X106099429Y-70630142D01*
X104575429Y-69614142D02*
X104575429Y-69468999D01*
X104648000Y-69323856D01*
X104720571Y-69251285D01*
X104865714Y-69178714D01*
X105156000Y-69106142D01*
X105518857Y-69106142D01*
X105809143Y-69178714D01*
X105954286Y-69251285D01*
X106026857Y-69323856D01*
X106099429Y-69468999D01*
X106099429Y-69614142D01*
X106026857Y-69759285D01*
X105954286Y-69831856D01*
X105809143Y-69904428D01*
X105518857Y-69976999D01*
X105156000Y-69976999D01*
X104865714Y-69904428D01*
X104720571Y-69831856D01*
X104648000Y-69759285D01*
X104575429Y-69614142D01*
D14*
X182245000Y-129540000D02*
X183515000Y-129540000D01*
X183515000Y-129540000D02*
X184150000Y-128905000D01*
X184150000Y-128905000D02*
X184785000Y-129540000D01*
X184785000Y-129540000D02*
X186055000Y-129540000D01*
X186055000Y-129540000D02*
X186690000Y-128905000D01*
X186690000Y-128905000D02*
X187325000Y-129540000D01*
X187325000Y-129540000D02*
X188595000Y-129540000D01*
X188595000Y-129540000D02*
X189230000Y-128905000D01*
X189230000Y-128905000D02*
X189865000Y-129540000D01*
X182245000Y-124460000D02*
X183515000Y-124460000D01*
X183515000Y-124460000D02*
X184150000Y-125095000D01*
X184150000Y-125095000D02*
X184785000Y-124460000D01*
X184785000Y-124460000D02*
X186055000Y-124460000D01*
X186055000Y-124460000D02*
X186690000Y-125095000D01*
X186690000Y-125095000D02*
X187325000Y-124460000D01*
X187325000Y-124460000D02*
X188595000Y-124460000D01*
X188595000Y-124460000D02*
X189230000Y-125095000D01*
X189230000Y-125095000D02*
X189865000Y-124460000D01*
X151130000Y-128905000D02*
X150495000Y-129540000D01*
X150495000Y-129540000D02*
X149225000Y-129540000D01*
X149225000Y-129540000D02*
X148590000Y-128905000D01*
X148590000Y-128905000D02*
X147955000Y-129540000D01*
X147955000Y-129540000D02*
X146685000Y-129540000D01*
X146685000Y-129540000D02*
X146050000Y-128905000D01*
X146050000Y-128905000D02*
X145415000Y-129540000D01*
X145415000Y-129540000D02*
X144145000Y-129540000D01*
X144145000Y-129540000D02*
X143510000Y-128905000D01*
X182245000Y-129540000D02*
X181610000Y-128905000D01*
X181610000Y-128905000D02*
X180975000Y-129540000D01*
X180975000Y-129540000D02*
X179705000Y-129540000D01*
X179705000Y-129540000D02*
X179070000Y-128905000D01*
X179070000Y-128905000D02*
X178435000Y-129540000D01*
X178435000Y-129540000D02*
X177165000Y-129540000D01*
X177165000Y-129540000D02*
X176530000Y-128905000D01*
X176530000Y-128905000D02*
X175895000Y-129540000D01*
X175895000Y-129540000D02*
X174625000Y-129540000D01*
X174625000Y-129540000D02*
X173990000Y-128905000D01*
X173990000Y-128905000D02*
X173355000Y-129540000D01*
X173355000Y-129540000D02*
X172085000Y-129540000D01*
X172085000Y-129540000D02*
X171450000Y-128905000D01*
X171450000Y-128905000D02*
X170815000Y-129540000D01*
X170815000Y-129540000D02*
X169545000Y-129540000D01*
X169545000Y-129540000D02*
X168910000Y-128905000D01*
X168910000Y-128905000D02*
X168275000Y-129540000D01*
X168275000Y-129540000D02*
X167005000Y-129540000D01*
X167005000Y-129540000D02*
X166370000Y-128905000D01*
X166370000Y-128905000D02*
X165735000Y-129540000D01*
X165735000Y-129540000D02*
X164465000Y-129540000D01*
X164465000Y-129540000D02*
X163830000Y-128905000D01*
X163830000Y-128905000D02*
X163195000Y-129540000D01*
X163195000Y-129540000D02*
X161925000Y-129540000D01*
X161925000Y-129540000D02*
X161290000Y-128905000D01*
X161290000Y-128905000D02*
X160655000Y-129540000D01*
X160655000Y-129540000D02*
X159385000Y-129540000D01*
X159385000Y-129540000D02*
X158750000Y-128905000D01*
X158750000Y-128905000D02*
X158115000Y-129540000D01*
X158115000Y-129540000D02*
X156845000Y-129540000D01*
X156845000Y-129540000D02*
X156210000Y-128905000D01*
X156210000Y-128905000D02*
X155575000Y-129540000D01*
X155575000Y-129540000D02*
X154305000Y-129540000D01*
X154305000Y-129540000D02*
X153670000Y-128905000D01*
X153670000Y-128905000D02*
X153035000Y-129540000D01*
X153035000Y-129540000D02*
X151765000Y-129540000D01*
X151765000Y-129540000D02*
X151130000Y-128905000D01*
X191135000Y-124460000D02*
X191770000Y-125095000D01*
X191770000Y-125095000D02*
X191770000Y-126365000D01*
X191770000Y-126365000D02*
X191135000Y-127000000D01*
X191135000Y-127000000D02*
X191770000Y-127635000D01*
X191770000Y-127635000D02*
X191770000Y-128905000D01*
X191770000Y-128905000D02*
X191135000Y-129540000D01*
X191135000Y-129540000D02*
X189865000Y-129540000D01*
X141605000Y-127000000D02*
X140970000Y-126365000D01*
X140970000Y-126365000D02*
X140970000Y-125095000D01*
X140970000Y-125095000D02*
X141605000Y-124460000D01*
X141605000Y-124460000D02*
X142875000Y-124460000D01*
X142875000Y-124460000D02*
X143510000Y-125095000D01*
X143510000Y-125095000D02*
X144145000Y-124460000D01*
X144145000Y-124460000D02*
X145415000Y-124460000D01*
X145415000Y-124460000D02*
X146050000Y-125095000D01*
X146050000Y-125095000D02*
X146685000Y-124460000D01*
X146685000Y-124460000D02*
X147955000Y-124460000D01*
X147955000Y-124460000D02*
X148590000Y-125095000D01*
X148590000Y-125095000D02*
X149225000Y-124460000D01*
X149225000Y-124460000D02*
X150495000Y-124460000D01*
X150495000Y-124460000D02*
X151130000Y-125095000D01*
X151130000Y-125095000D02*
X151765000Y-124460000D01*
X151765000Y-124460000D02*
X153035000Y-124460000D01*
X153035000Y-124460000D02*
X153670000Y-125095000D01*
X153670000Y-125095000D02*
X154305000Y-124460000D01*
X154305000Y-124460000D02*
X155575000Y-124460000D01*
X155575000Y-124460000D02*
X156210000Y-125095000D01*
X156210000Y-125095000D02*
X156845000Y-124460000D01*
X156845000Y-124460000D02*
X158115000Y-124460000D01*
X158115000Y-124460000D02*
X158750000Y-125095000D01*
X158750000Y-125095000D02*
X159385000Y-124460000D01*
X159385000Y-124460000D02*
X160655000Y-124460000D01*
X160655000Y-124460000D02*
X161290000Y-125095000D01*
X161290000Y-125095000D02*
X161925000Y-124460000D01*
X161925000Y-124460000D02*
X163195000Y-124460000D01*
X163195000Y-124460000D02*
X163830000Y-125095000D01*
X163830000Y-125095000D02*
X164465000Y-124460000D01*
X164465000Y-124460000D02*
X165735000Y-124460000D01*
X165735000Y-124460000D02*
X166370000Y-125095000D01*
X166370000Y-125095000D02*
X167005000Y-124460000D01*
X167005000Y-124460000D02*
X168275000Y-124460000D01*
X168275000Y-124460000D02*
X168910000Y-125095000D01*
X168910000Y-125095000D02*
X169545000Y-124460000D01*
X169545000Y-124460000D02*
X170815000Y-124460000D01*
X170815000Y-124460000D02*
X171450000Y-125095000D01*
X171450000Y-125095000D02*
X172085000Y-124460000D01*
X172085000Y-124460000D02*
X173355000Y-124460000D01*
X173355000Y-124460000D02*
X173990000Y-125095000D01*
X173990000Y-125095000D02*
X174625000Y-124460000D01*
X174625000Y-124460000D02*
X175895000Y-124460000D01*
X175895000Y-124460000D02*
X176530000Y-125095000D01*
X176530000Y-125095000D02*
X177165000Y-124460000D01*
X177165000Y-124460000D02*
X178435000Y-124460000D01*
X178435000Y-124460000D02*
X179070000Y-125095000D01*
X179070000Y-125095000D02*
X179705000Y-124460000D01*
X179705000Y-124460000D02*
X180975000Y-124460000D01*
X180975000Y-124460000D02*
X181610000Y-125095000D01*
X181610000Y-125095000D02*
X182245000Y-124460000D01*
X189865000Y-124460000D02*
X191135000Y-124460000D01*
X143510000Y-127000000D02*
X143510000Y-129540000D01*
X143510000Y-129540000D02*
X140970000Y-129540000D01*
X140970000Y-129540000D02*
X140970000Y-127000000D01*
X140970000Y-127000000D02*
X143510000Y-127000000D01*
X199686000Y-125800000D02*
G75*
G03X199686000Y-125800000I-2286000J0D01*
G01*
X109686000Y-125800000D02*
G75*
G03X109686000Y-125800000I-2286000J0D01*
G01*
X199686000Y-55800000D02*
G75*
G03X199686000Y-55800000I-2286000J0D01*
G01*
X109686000Y-55800000D02*
G75*
G03X109686000Y-55800000I-2286000J0D01*
G01*
X136652000Y-119126000D02*
X137668000Y-119126000D01*
X136144000Y-112522000D02*
X136144000Y-118618000D01*
X138176000Y-112522000D02*
X138176000Y-118618000D01*
X136144000Y-118618000D02*
G75*
G03X136652000Y-119126000I508000J0D01*
G01*
X137668000Y-119126000D02*
G75*
G03X138176000Y-118618000I0J508000D01*
G01*
X136652000Y-112014000D02*
G75*
G03X136144000Y-112522000I0J-508000D01*
G01*
X138176000Y-112522000D02*
G75*
G03X137668000Y-112014000I-508000J0D01*
G01*
X136652000Y-112014000D02*
X137668000Y-112014000D01*
X169672000Y-119126000D02*
X170688000Y-119126000D01*
X169164000Y-112522000D02*
X169164000Y-118618000D01*
X171196000Y-112522000D02*
X171196000Y-118618000D01*
X169164000Y-118618000D02*
G75*
G03X169672000Y-119126000I508000J0D01*
G01*
X170688000Y-119126000D02*
G75*
G03X171196000Y-118618000I0J508000D01*
G01*
X169672000Y-112014000D02*
G75*
G03X169164000Y-112522000I0J-508000D01*
G01*
X171196000Y-112522000D02*
G75*
G03X170688000Y-112014000I-508000J0D01*
G01*
X169672000Y-112014000D02*
X170688000Y-112014000D01*
X106172000Y-119126000D02*
X107188000Y-119126000D01*
X105664000Y-112522000D02*
X105664000Y-118618000D01*
X107696000Y-112522000D02*
X107696000Y-118618000D01*
X105664000Y-118618000D02*
G75*
G03X106172000Y-119126000I508000J0D01*
G01*
X107188000Y-119126000D02*
G75*
G03X107696000Y-118618000I0J508000D01*
G01*
X106172000Y-112014000D02*
G75*
G03X105664000Y-112522000I0J-508000D01*
G01*
X107696000Y-112522000D02*
G75*
G03X107188000Y-112014000I-508000J0D01*
G01*
X106172000Y-112014000D02*
X107188000Y-112014000D01*
X135128000Y-112014000D02*
X134112000Y-112014000D01*
X135636000Y-118618000D02*
X135636000Y-112522000D01*
X133604000Y-118618000D02*
X133604000Y-112522000D01*
X135636000Y-112522000D02*
G75*
G03X135128000Y-112014000I-508000J0D01*
G01*
X134112000Y-112014000D02*
G75*
G03X133604000Y-112522000I0J-508000D01*
G01*
X135128000Y-119126000D02*
G75*
G03X135636000Y-118618000I0J508000D01*
G01*
X133604000Y-118618000D02*
G75*
G03X134112000Y-119126000I508000J0D01*
G01*
X135128000Y-119126000D02*
X134112000Y-119126000D01*
X132588000Y-112014000D02*
X131572000Y-112014000D01*
X133096000Y-118618000D02*
X133096000Y-112522000D01*
X131064000Y-118618000D02*
X131064000Y-112522000D01*
X133096000Y-112522000D02*
G75*
G03X132588000Y-112014000I-508000J0D01*
G01*
X131572000Y-112014000D02*
G75*
G03X131064000Y-112522000I0J-508000D01*
G01*
X132588000Y-119126000D02*
G75*
G03X133096000Y-118618000I0J508000D01*
G01*
X131064000Y-118618000D02*
G75*
G03X131572000Y-119126000I508000J0D01*
G01*
X132588000Y-119126000D02*
X131572000Y-119126000D01*
X198628000Y-112014000D02*
X197612000Y-112014000D01*
X199136000Y-118618000D02*
X199136000Y-112522000D01*
X197104000Y-118618000D02*
X197104000Y-112522000D01*
X199136000Y-112522000D02*
G75*
G03X198628000Y-112014000I-508000J0D01*
G01*
X197612000Y-112014000D02*
G75*
G03X197104000Y-112522000I0J-508000D01*
G01*
X198628000Y-119126000D02*
G75*
G03X199136000Y-118618000I0J508000D01*
G01*
X197104000Y-118618000D02*
G75*
G03X197612000Y-119126000I508000J0D01*
G01*
X198628000Y-119126000D02*
X197612000Y-119126000D01*
X178400000Y-62550000D02*
X178400000Y-51050000D01*
X190150000Y-62800000D02*
X178650000Y-62800000D01*
X190400000Y-51050000D02*
X190400000Y-62550000D01*
X178650000Y-50800000D02*
X190150000Y-50800000D01*
X190150000Y-62800000D02*
G75*
G03X190400000Y-62550000I0J250000D01*
G01*
X178400000Y-62550000D02*
G75*
G03X178650000Y-62800000I250000J0D01*
G01*
X190400000Y-51050000D02*
G75*
G03X190150000Y-50800000I-250000J0D01*
G01*
X178650000Y-50800000D02*
G75*
G03X178400000Y-51050000I0J-250000D01*
G01*
X187950000Y-56800000D02*
G75*
G03X187950000Y-56800000I-3550000J0D01*
G01*
X178400000Y-78550000D02*
X178400000Y-67050000D01*
X190150000Y-78800000D02*
X178650000Y-78800000D01*
X190400000Y-67050000D02*
X190400000Y-78550000D01*
X178650000Y-66800000D02*
X190150000Y-66800000D01*
X190150000Y-78800000D02*
G75*
G03X190400000Y-78550000I0J250000D01*
G01*
X178400000Y-78550000D02*
G75*
G03X178650000Y-78800000I250000J0D01*
G01*
X190400000Y-67050000D02*
G75*
G03X190150000Y-66800000I-250000J0D01*
G01*
X178650000Y-66800000D02*
G75*
G03X178400000Y-67050000I0J-250000D01*
G01*
X187950000Y-72800000D02*
G75*
G03X187950000Y-72800000I-3550000J0D01*
G01*
X162400000Y-78550000D02*
X162400000Y-67050000D01*
X174150000Y-78800000D02*
X162650000Y-78800000D01*
X174400000Y-67050000D02*
X174400000Y-78550000D01*
X162650000Y-66800000D02*
X174150000Y-66800000D01*
X174150000Y-78800000D02*
G75*
G03X174400000Y-78550000I0J250000D01*
G01*
X162400000Y-78550000D02*
G75*
G03X162650000Y-78800000I250000J0D01*
G01*
X174400000Y-67050000D02*
G75*
G03X174150000Y-66800000I-250000J0D01*
G01*
X162650000Y-66800000D02*
G75*
G03X162400000Y-67050000I0J-250000D01*
G01*
X171950000Y-72800000D02*
G75*
G03X171950000Y-72800000I-3550000J0D01*
G01*
X146400000Y-78550000D02*
X146400000Y-67050000D01*
X158150000Y-78800000D02*
X146650000Y-78800000D01*
X158400000Y-67050000D02*
X158400000Y-78550000D01*
X146650000Y-66800000D02*
X158150000Y-66800000D01*
X158150000Y-78800000D02*
G75*
G03X158400000Y-78550000I0J250000D01*
G01*
X146400000Y-78550000D02*
G75*
G03X146650000Y-78800000I250000J0D01*
G01*
X158400000Y-67050000D02*
G75*
G03X158150000Y-66800000I-250000J0D01*
G01*
X146650000Y-66800000D02*
G75*
G03X146400000Y-67050000I0J-250000D01*
G01*
X155950000Y-72800000D02*
G75*
G03X155950000Y-72800000I-3550000J0D01*
G01*
X178400000Y-94550000D02*
X178400000Y-83050000D01*
X190150000Y-94800000D02*
X178650000Y-94800000D01*
X190400000Y-83050000D02*
X190400000Y-94550000D01*
X178650000Y-82800000D02*
X190150000Y-82800000D01*
X190150000Y-94800000D02*
G75*
G03X190400000Y-94550000I0J250000D01*
G01*
X178400000Y-94550000D02*
G75*
G03X178650000Y-94800000I250000J0D01*
G01*
X190400000Y-83050000D02*
G75*
G03X190150000Y-82800000I-250000J0D01*
G01*
X178650000Y-82800000D02*
G75*
G03X178400000Y-83050000I0J-250000D01*
G01*
X187950000Y-88800000D02*
G75*
G03X187950000Y-88800000I-3550000J0D01*
G01*
X162400000Y-94550000D02*
X162400000Y-83050000D01*
X174150000Y-94800000D02*
X162650000Y-94800000D01*
X174400000Y-83050000D02*
X174400000Y-94550000D01*
X162650000Y-82800000D02*
X174150000Y-82800000D01*
X174150000Y-94800000D02*
G75*
G03X174400000Y-94550000I0J250000D01*
G01*
X162400000Y-94550000D02*
G75*
G03X162650000Y-94800000I250000J0D01*
G01*
X174400000Y-83050000D02*
G75*
G03X174150000Y-82800000I-250000J0D01*
G01*
X162650000Y-82800000D02*
G75*
G03X162400000Y-83050000I0J-250000D01*
G01*
X171950000Y-88800000D02*
G75*
G03X171950000Y-88800000I-3550000J0D01*
G01*
X146400000Y-94550000D02*
X146400000Y-83050000D01*
X158150000Y-94800000D02*
X146650000Y-94800000D01*
X158400000Y-83050000D02*
X158400000Y-94550000D01*
X146650000Y-82800000D02*
X158150000Y-82800000D01*
X158150000Y-94800000D02*
G75*
G03X158400000Y-94550000I0J250000D01*
G01*
X146400000Y-94550000D02*
G75*
G03X146650000Y-94800000I250000J0D01*
G01*
X158400000Y-83050000D02*
G75*
G03X158150000Y-82800000I-250000J0D01*
G01*
X146650000Y-82800000D02*
G75*
G03X146400000Y-83050000I0J-250000D01*
G01*
X155950000Y-88800000D02*
G75*
G03X155950000Y-88800000I-3550000J0D01*
G01*
X178400000Y-110550000D02*
X178400000Y-99050000D01*
X190150000Y-110800000D02*
X178650000Y-110800000D01*
X190400000Y-99050000D02*
X190400000Y-110550000D01*
X178650000Y-98800000D02*
X190150000Y-98800000D01*
X190150000Y-110800000D02*
G75*
G03X190400000Y-110550000I0J250000D01*
G01*
X178400000Y-110550000D02*
G75*
G03X178650000Y-110800000I250000J0D01*
G01*
X190400000Y-99050000D02*
G75*
G03X190150000Y-98800000I-250000J0D01*
G01*
X178650000Y-98800000D02*
G75*
G03X178400000Y-99050000I0J-250000D01*
G01*
X187950000Y-104800000D02*
G75*
G03X187950000Y-104800000I-3550000J0D01*
G01*
X162400000Y-110550000D02*
X162400000Y-99050000D01*
X174150000Y-110800000D02*
X162650000Y-110800000D01*
X174400000Y-99050000D02*
X174400000Y-110550000D01*
X162650000Y-98800000D02*
X174150000Y-98800000D01*
X174150000Y-110800000D02*
G75*
G03X174400000Y-110550000I0J250000D01*
G01*
X162400000Y-110550000D02*
G75*
G03X162650000Y-110800000I250000J0D01*
G01*
X174400000Y-99050000D02*
G75*
G03X174150000Y-98800000I-250000J0D01*
G01*
X162650000Y-98800000D02*
G75*
G03X162400000Y-99050000I0J-250000D01*
G01*
X171950000Y-104800000D02*
G75*
G03X171950000Y-104800000I-3550000J0D01*
G01*
X146400000Y-110550000D02*
X146400000Y-99050000D01*
X158150000Y-110800000D02*
X146650000Y-110800000D01*
X158400000Y-99050000D02*
X158400000Y-110550000D01*
X146650000Y-98800000D02*
X158150000Y-98800000D01*
X158150000Y-110800000D02*
G75*
G03X158400000Y-110550000I0J250000D01*
G01*
X146400000Y-110550000D02*
G75*
G03X146650000Y-110800000I250000J0D01*
G01*
X158400000Y-99050000D02*
G75*
G03X158150000Y-98800000I-250000J0D01*
G01*
X146650000Y-98800000D02*
G75*
G03X146400000Y-99050000I0J-250000D01*
G01*
X155950000Y-104800000D02*
G75*
G03X155950000Y-104800000I-3550000J0D01*
G01*
X130400000Y-110550000D02*
X130400000Y-99050000D01*
X142150000Y-110800000D02*
X130650000Y-110800000D01*
X142400000Y-99050000D02*
X142400000Y-110550000D01*
X130650000Y-98800000D02*
X142150000Y-98800000D01*
X142150000Y-110800000D02*
G75*
G03X142400000Y-110550000I0J250000D01*
G01*
X130400000Y-110550000D02*
G75*
G03X130650000Y-110800000I250000J0D01*
G01*
X142400000Y-99050000D02*
G75*
G03X142150000Y-98800000I-250000J0D01*
G01*
X130650000Y-98800000D02*
G75*
G03X130400000Y-99050000I0J-250000D01*
G01*
X139950000Y-104800000D02*
G75*
G03X139950000Y-104800000I-3550000J0D01*
G01*
X130400000Y-94550000D02*
X130400000Y-83050000D01*
X142150000Y-94800000D02*
X130650000Y-94800000D01*
X142400000Y-83050000D02*
X142400000Y-94550000D01*
X130650000Y-82800000D02*
X142150000Y-82800000D01*
X142150000Y-94800000D02*
G75*
G03X142400000Y-94550000I0J250000D01*
G01*
X130400000Y-94550000D02*
G75*
G03X130650000Y-94800000I250000J0D01*
G01*
X142400000Y-83050000D02*
G75*
G03X142150000Y-82800000I-250000J0D01*
G01*
X130650000Y-82800000D02*
G75*
G03X130400000Y-83050000I0J-250000D01*
G01*
X139950000Y-88800000D02*
G75*
G03X139950000Y-88800000I-3550000J0D01*
G01*
X130400000Y-78550000D02*
X130400000Y-67050000D01*
X142150000Y-78800000D02*
X130650000Y-78800000D01*
X142400000Y-67050000D02*
X142400000Y-78550000D01*
X130650000Y-66800000D02*
X142150000Y-66800000D01*
X142150000Y-78800000D02*
G75*
G03X142400000Y-78550000I0J250000D01*
G01*
X130400000Y-78550000D02*
G75*
G03X130650000Y-78800000I250000J0D01*
G01*
X142400000Y-67050000D02*
G75*
G03X142150000Y-66800000I-250000J0D01*
G01*
X130650000Y-66800000D02*
G75*
G03X130400000Y-67050000I0J-250000D01*
G01*
X139950000Y-72800000D02*
G75*
G03X139950000Y-72800000I-3550000J0D01*
G01*
X130400000Y-62550000D02*
X130400000Y-51050000D01*
X142150000Y-62800000D02*
X130650000Y-62800000D01*
X142400000Y-51050000D02*
X142400000Y-62550000D01*
X130650000Y-50800000D02*
X142150000Y-50800000D01*
X142150000Y-62800000D02*
G75*
G03X142400000Y-62550000I0J250000D01*
G01*
X130400000Y-62550000D02*
G75*
G03X130650000Y-62800000I250000J0D01*
G01*
X142400000Y-51050000D02*
G75*
G03X142150000Y-50800000I-250000J0D01*
G01*
X130650000Y-50800000D02*
G75*
G03X130400000Y-51050000I0J-250000D01*
G01*
X139950000Y-56800000D02*
G75*
G03X139950000Y-56800000I-3550000J0D01*
G01*
X146400000Y-62550000D02*
X146400000Y-51050000D01*
X158150000Y-62800000D02*
X146650000Y-62800000D01*
X158400000Y-51050000D02*
X158400000Y-62550000D01*
X146650000Y-50800000D02*
X158150000Y-50800000D01*
X158150000Y-62800000D02*
G75*
G03X158400000Y-62550000I0J250000D01*
G01*
X146400000Y-62550000D02*
G75*
G03X146650000Y-62800000I250000J0D01*
G01*
X158400000Y-51050000D02*
G75*
G03X158150000Y-50800000I-250000J0D01*
G01*
X146650000Y-50800000D02*
G75*
G03X146400000Y-51050000I0J-250000D01*
G01*
X155950000Y-56800000D02*
G75*
G03X155950000Y-56800000I-3550000J0D01*
G01*
X162400000Y-62550000D02*
X162400000Y-51050000D01*
X174150000Y-62800000D02*
X162650000Y-62800000D01*
X174400000Y-51050000D02*
X174400000Y-62550000D01*
X162650000Y-50800000D02*
X174150000Y-50800000D01*
X174150000Y-62800000D02*
G75*
G03X174400000Y-62550000I0J250000D01*
G01*
X162400000Y-62550000D02*
G75*
G03X162650000Y-62800000I250000J0D01*
G01*
X174400000Y-51050000D02*
G75*
G03X174150000Y-50800000I-250000J0D01*
G01*
X162650000Y-50800000D02*
G75*
G03X162400000Y-51050000I0J-250000D01*
G01*
X171950000Y-56800000D02*
G75*
G03X171950000Y-56800000I-3550000J0D01*
G01*
X114400000Y-110550000D02*
X114400000Y-99050000D01*
X126150000Y-110800000D02*
X114650000Y-110800000D01*
X126400000Y-99050000D02*
X126400000Y-110550000D01*
X114650000Y-98800000D02*
X126150000Y-98800000D01*
X126150000Y-110800000D02*
G75*
G03X126400000Y-110550000I0J250000D01*
G01*
X114400000Y-110550000D02*
G75*
G03X114650000Y-110800000I250000J0D01*
G01*
X126400000Y-99050000D02*
G75*
G03X126150000Y-98800000I-250000J0D01*
G01*
X114650000Y-98800000D02*
G75*
G03X114400000Y-99050000I0J-250000D01*
G01*
X123950000Y-104800000D02*
G75*
G03X123950000Y-104800000I-3550000J0D01*
G01*
X114400000Y-94550000D02*
X114400000Y-83050000D01*
X126150000Y-94800000D02*
X114650000Y-94800000D01*
X126400000Y-83050000D02*
X126400000Y-94550000D01*
X114650000Y-82800000D02*
X126150000Y-82800000D01*
X126150000Y-94800000D02*
G75*
G03X126400000Y-94550000I0J250000D01*
G01*
X114400000Y-94550000D02*
G75*
G03X114650000Y-94800000I250000J0D01*
G01*
X126400000Y-83050000D02*
G75*
G03X126150000Y-82800000I-250000J0D01*
G01*
X114650000Y-82800000D02*
G75*
G03X114400000Y-83050000I0J-250000D01*
G01*
X123950000Y-88800000D02*
G75*
G03X123950000Y-88800000I-3550000J0D01*
G01*
X114400000Y-78550000D02*
X114400000Y-67050000D01*
X126150000Y-78800000D02*
X114650000Y-78800000D01*
X126400000Y-67050000D02*
X126400000Y-78550000D01*
X114650000Y-66800000D02*
X126150000Y-66800000D01*
X126150000Y-78800000D02*
G75*
G03X126400000Y-78550000I0J250000D01*
G01*
X114400000Y-78550000D02*
G75*
G03X114650000Y-78800000I250000J0D01*
G01*
X126400000Y-67050000D02*
G75*
G03X126150000Y-66800000I-250000J0D01*
G01*
X114650000Y-66800000D02*
G75*
G03X114400000Y-67050000I0J-250000D01*
G01*
X123950000Y-72800000D02*
G75*
G03X123950000Y-72800000I-3550000J0D01*
G01*
X114400000Y-62550000D02*
X114400000Y-51050000D01*
X126150000Y-62800000D02*
X114650000Y-62800000D01*
X126400000Y-51050000D02*
X126400000Y-62550000D01*
X114650000Y-50800000D02*
X126150000Y-50800000D01*
X126150000Y-62800000D02*
G75*
G03X126400000Y-62550000I0J250000D01*
G01*
X114400000Y-62550000D02*
G75*
G03X114650000Y-62800000I250000J0D01*
G01*
X126400000Y-51050000D02*
G75*
G03X126150000Y-50800000I-250000J0D01*
G01*
X114650000Y-50800000D02*
G75*
G03X114400000Y-51050000I0J-250000D01*
G01*
X123950000Y-56800000D02*
G75*
G03X123950000Y-56800000I-3550000J0D01*
G01*
X140208000Y-117856000D02*
G75*
G03X141224000Y-116840000I0J1016000D01*
G01*
X141224000Y-116840000D02*
G75*
G03X140208000Y-115824000I-1016000J0D01*
G01*
X140208000Y-114300000D02*
X167132000Y-114300000D01*
X167132000Y-114300000D02*
X167132000Y-119380000D01*
X167132000Y-119380000D02*
X140208000Y-119380000D01*
X140208000Y-119380000D02*
X140208000Y-114300000D01*
X173482000Y-117856000D02*
G75*
G03X174498000Y-116840000I0J1016000D01*
G01*
X174498000Y-116840000D02*
G75*
G03X173482000Y-115824000I-1016000J0D01*
G01*
X173482000Y-114300000D02*
X194818000Y-114300000D01*
X194818000Y-114300000D02*
X194818000Y-119380000D01*
X194818000Y-119380000D02*
X173482000Y-119380000D01*
X173482000Y-119380000D02*
X173482000Y-114300000D01*
X109220000Y-117856000D02*
G75*
G03X110236000Y-116840000I0J1016000D01*
G01*
X110236000Y-116840000D02*
G75*
G03X109220000Y-115824000I-1016000J0D01*
G01*
X129540000Y-114300000D02*
X109220000Y-114300000D01*
X109220000Y-114300000D02*
X109220000Y-119380000D01*
X109220000Y-119380000D02*
X129540000Y-119380000D01*
X129540000Y-119380000D02*
X129540000Y-114300000D01*
D11*
X149110096Y-123967119D02*
X149110096Y-122951119D01*
X149497143Y-122951119D01*
X149593905Y-122999500D01*
X149642286Y-123047881D01*
X149690667Y-123144643D01*
X149690667Y-123289786D01*
X149642286Y-123386548D01*
X149593905Y-123434929D01*
X149497143Y-123483310D01*
X149110096Y-123483310D01*
X150658286Y-123967119D02*
X150077715Y-123967119D01*
X150368001Y-123967119D02*
X150368001Y-122951119D01*
X150271239Y-123096262D01*
X150174477Y-123193024D01*
X150077715Y-123241405D01*
X179094492Y-123434929D02*
X179399292Y-123434929D01*
X179463398Y-123967119D02*
X179027969Y-123967119D01*
X179154969Y-122951119D01*
X179590398Y-122951119D01*
X179895198Y-122951119D02*
X180377798Y-123967119D01*
X180504798Y-122951119D02*
X179768198Y-123967119D01*
X180722512Y-122951119D02*
X181245026Y-122951119D01*
X180856769Y-123967119D02*
X180983769Y-122951119D01*
X181489349Y-123434929D02*
X181794149Y-123434929D01*
X181858255Y-123967119D02*
X181422826Y-123967119D01*
X181549826Y-122951119D01*
X181985255Y-122951119D01*
X182250140Y-123967119D02*
X182377140Y-122951119D01*
X182772655Y-123967119D01*
X182899655Y-122951119D01*
X183170587Y-123918738D02*
X183295169Y-123967119D01*
X183512883Y-123967119D01*
X183606016Y-123918738D01*
X183655607Y-123870357D01*
X183711245Y-123773595D01*
X183723340Y-123676833D01*
X183691893Y-123580071D01*
X183654397Y-123531690D01*
X183573359Y-123483310D01*
X183405235Y-123434929D01*
X183324197Y-123386548D01*
X183286702Y-123338167D01*
X183255254Y-123241405D01*
X183267349Y-123144643D01*
X183322987Y-123047881D01*
X183372578Y-122999500D01*
X183465712Y-122951119D01*
X183683426Y-122951119D01*
X183808007Y-122999500D01*
X184078940Y-123967119D02*
X184205940Y-122951119D01*
X184815541Y-122951119D02*
X184989712Y-122951119D01*
X185070750Y-122999500D01*
X185145741Y-123096262D01*
X185165092Y-123289786D01*
X185122759Y-123628452D01*
X185055027Y-123821976D01*
X184955845Y-123918738D01*
X184862712Y-123967119D01*
X184688541Y-123967119D01*
X184607502Y-123918738D01*
X184532512Y-123821976D01*
X184513159Y-123628452D01*
X184555492Y-123289786D01*
X184623226Y-123096262D01*
X184722407Y-122999500D01*
X184815541Y-122951119D01*
X185472312Y-123967119D02*
X185599312Y-122951119D01*
X185994827Y-123967119D01*
X186121827Y-122951119D01*
X137205357Y-121454333D02*
X137253738Y-121502714D01*
X137302119Y-121647857D01*
X137302119Y-121744619D01*
X137253738Y-121889761D01*
X137156976Y-121986523D01*
X137060214Y-122034904D01*
X136866690Y-122083285D01*
X136721548Y-122083285D01*
X136528024Y-122034904D01*
X136431262Y-121986523D01*
X136334500Y-121889761D01*
X136286119Y-121744619D01*
X136286119Y-121647857D01*
X136334500Y-121502714D01*
X136382881Y-121454333D01*
X137302119Y-120486714D02*
X137302119Y-121067285D01*
X137302119Y-120776999D02*
X136286119Y-120776999D01*
X136431262Y-120873761D01*
X136528024Y-120970523D01*
X136576405Y-121067285D01*
X137556119Y-122711330D02*
X137556119Y-122624245D01*
X137604500Y-122543207D01*
X137652881Y-122505712D01*
X137749643Y-122474264D01*
X137943167Y-122454911D01*
X138185071Y-122485149D01*
X138378595Y-122552883D01*
X138475357Y-122608521D01*
X138523738Y-122658112D01*
X138572119Y-122751245D01*
X138572119Y-122838330D01*
X138523738Y-122919369D01*
X138475357Y-122956864D01*
X138378595Y-122988312D01*
X138185071Y-123007664D01*
X137943167Y-122977426D01*
X137749643Y-122909693D01*
X137652881Y-122854055D01*
X137604500Y-122804464D01*
X137556119Y-122711330D01*
X138475357Y-122129550D02*
X138523738Y-122092055D01*
X138572119Y-122141645D01*
X138523738Y-122179141D01*
X138475357Y-122129550D01*
X138572119Y-122141645D01*
X138572119Y-121227244D02*
X138572119Y-121749759D01*
X138572119Y-121488501D02*
X137556119Y-121361501D01*
X137701262Y-121466730D01*
X137798024Y-121565911D01*
X137846405Y-121659045D01*
X137894786Y-120358807D02*
X138572119Y-120443473D01*
X137894786Y-120750693D02*
X138426976Y-120817216D01*
X138523738Y-120785769D01*
X138572119Y-120704730D01*
X138572119Y-120574102D01*
X138523738Y-120480969D01*
X138475357Y-120431378D01*
X138039929Y-119636722D02*
X138039929Y-119941522D01*
X138572119Y-120008045D02*
X137556119Y-119881045D01*
X137556119Y-119445616D01*
X168637857Y-118279333D02*
X168686238Y-118327714D01*
X168734619Y-118472857D01*
X168734619Y-118569619D01*
X168686238Y-118714761D01*
X168589476Y-118811523D01*
X168492714Y-118859904D01*
X168299190Y-118908285D01*
X168154048Y-118908285D01*
X167960524Y-118859904D01*
X167863762Y-118811523D01*
X167767000Y-118714761D01*
X167718619Y-118569619D01*
X167718619Y-118472857D01*
X167767000Y-118327714D01*
X167815381Y-118279333D01*
X167815381Y-117892285D02*
X167767000Y-117843904D01*
X167718619Y-117747142D01*
X167718619Y-117505238D01*
X167767000Y-117408476D01*
X167815381Y-117360095D01*
X167912143Y-117311714D01*
X168008905Y-117311714D01*
X168154048Y-117360095D01*
X168734619Y-117940666D01*
X168734619Y-117311714D01*
X167718619Y-115408830D02*
X167718619Y-115321745D01*
X167767000Y-115240707D01*
X167815381Y-115203212D01*
X167912143Y-115171764D01*
X168105667Y-115152411D01*
X168347571Y-115182649D01*
X168541095Y-115250383D01*
X168637857Y-115306021D01*
X168686238Y-115355612D01*
X168734619Y-115448745D01*
X168734619Y-115535830D01*
X168686238Y-115616869D01*
X168637857Y-115654364D01*
X168541095Y-115685812D01*
X168347571Y-115705164D01*
X168105667Y-115674926D01*
X167912143Y-115607193D01*
X167815381Y-115551555D01*
X167767000Y-115501964D01*
X167718619Y-115408830D01*
X168637857Y-114827050D02*
X168686238Y-114789555D01*
X168734619Y-114839145D01*
X168686238Y-114876641D01*
X168637857Y-114827050D01*
X168734619Y-114839145D01*
X168734619Y-113924744D02*
X168734619Y-114447259D01*
X168734619Y-114186001D02*
X167718619Y-114059001D01*
X167863762Y-114164230D01*
X167960524Y-114263411D01*
X168008905Y-114356545D01*
X168057286Y-113056307D02*
X168734619Y-113140973D01*
X168057286Y-113448193D02*
X168589476Y-113514716D01*
X168686238Y-113483269D01*
X168734619Y-113402230D01*
X168734619Y-113271602D01*
X168686238Y-113178469D01*
X168637857Y-113128878D01*
X168202429Y-112334222D02*
X168202429Y-112639022D01*
X168734619Y-112705545D02*
X167718619Y-112578545D01*
X167718619Y-112143116D01*
X105137857Y-118279333D02*
X105186238Y-118327714D01*
X105234619Y-118472857D01*
X105234619Y-118569619D01*
X105186238Y-118714761D01*
X105089476Y-118811523D01*
X104992714Y-118859904D01*
X104799190Y-118908285D01*
X104654048Y-118908285D01*
X104460524Y-118859904D01*
X104363762Y-118811523D01*
X104267000Y-118714761D01*
X104218619Y-118569619D01*
X104218619Y-118472857D01*
X104267000Y-118327714D01*
X104315381Y-118279333D01*
X104218619Y-117940666D02*
X104218619Y-117311714D01*
X104605667Y-117650380D01*
X104605667Y-117505238D01*
X104654048Y-117408476D01*
X104702429Y-117360095D01*
X104799190Y-117311714D01*
X105041095Y-117311714D01*
X105137857Y-117360095D01*
X105186238Y-117408476D01*
X105234619Y-117505238D01*
X105234619Y-117795523D01*
X105186238Y-117892285D01*
X105137857Y-117940666D01*
X104218619Y-115408830D02*
X104218619Y-115321745D01*
X104267000Y-115240707D01*
X104315381Y-115203212D01*
X104412143Y-115171764D01*
X104605667Y-115152411D01*
X104847571Y-115182649D01*
X105041095Y-115250383D01*
X105137857Y-115306021D01*
X105186238Y-115355612D01*
X105234619Y-115448745D01*
X105234619Y-115535830D01*
X105186238Y-115616869D01*
X105137857Y-115654364D01*
X105041095Y-115685812D01*
X104847571Y-115705164D01*
X104605667Y-115674926D01*
X104412143Y-115607193D01*
X104315381Y-115551555D01*
X104267000Y-115501964D01*
X104218619Y-115408830D01*
X105137857Y-114827050D02*
X105186238Y-114789555D01*
X105234619Y-114839145D01*
X105186238Y-114876641D01*
X105137857Y-114827050D01*
X105234619Y-114839145D01*
X105234619Y-113924744D02*
X105234619Y-114447259D01*
X105234619Y-114186001D02*
X104218619Y-114059001D01*
X104363762Y-114164230D01*
X104460524Y-114263411D01*
X104508905Y-114356545D01*
X104557286Y-113056307D02*
X105234619Y-113140973D01*
X104557286Y-113448193D02*
X105089476Y-113514716D01*
X105186238Y-113483269D01*
X105234619Y-113402230D01*
X105234619Y-113271602D01*
X105186238Y-113178469D01*
X105137857Y-113128878D01*
X104702429Y-112334222D02*
X104702429Y-112639022D01*
X105234619Y-112705545D02*
X104218619Y-112578545D01*
X104218619Y-112143116D01*
X134347857Y-121454333D02*
X134396238Y-121502714D01*
X134444619Y-121647857D01*
X134444619Y-121744619D01*
X134396238Y-121889761D01*
X134299476Y-121986523D01*
X134202714Y-122034904D01*
X134009190Y-122083285D01*
X133864048Y-122083285D01*
X133670524Y-122034904D01*
X133573762Y-121986523D01*
X133477000Y-121889761D01*
X133428619Y-121744619D01*
X133428619Y-121647857D01*
X133477000Y-121502714D01*
X133525381Y-121454333D01*
X133767286Y-120583476D02*
X134444619Y-120583476D01*
X133380238Y-120825380D02*
X134105952Y-121067285D01*
X134105952Y-120438333D01*
X134698619Y-122711330D02*
X134698619Y-122624245D01*
X134747000Y-122543207D01*
X134795381Y-122505712D01*
X134892143Y-122474264D01*
X135085667Y-122454911D01*
X135327571Y-122485149D01*
X135521095Y-122552883D01*
X135617857Y-122608521D01*
X135666238Y-122658112D01*
X135714619Y-122751245D01*
X135714619Y-122838330D01*
X135666238Y-122919369D01*
X135617857Y-122956864D01*
X135521095Y-122988312D01*
X135327571Y-123007664D01*
X135085667Y-122977426D01*
X134892143Y-122909693D01*
X134795381Y-122854055D01*
X134747000Y-122804464D01*
X134698619Y-122711330D01*
X135617857Y-122129550D02*
X135666238Y-122092055D01*
X135714619Y-122141645D01*
X135666238Y-122179141D01*
X135617857Y-122129550D01*
X135714619Y-122141645D01*
X135714619Y-121227244D02*
X135714619Y-121749759D01*
X135714619Y-121488501D02*
X134698619Y-121361501D01*
X134843762Y-121466730D01*
X134940524Y-121565911D01*
X134988905Y-121659045D01*
X135037286Y-120358807D02*
X135714619Y-120443473D01*
X135037286Y-120750693D02*
X135569476Y-120817216D01*
X135666238Y-120785769D01*
X135714619Y-120704730D01*
X135714619Y-120574102D01*
X135666238Y-120480969D01*
X135617857Y-120431378D01*
X135182429Y-119636722D02*
X135182429Y-119941522D01*
X135714619Y-120008045D02*
X134698619Y-119881045D01*
X134698619Y-119445616D01*
X131490357Y-121454333D02*
X131538738Y-121502714D01*
X131587119Y-121647857D01*
X131587119Y-121744619D01*
X131538738Y-121889761D01*
X131441976Y-121986523D01*
X131345214Y-122034904D01*
X131151690Y-122083285D01*
X131006548Y-122083285D01*
X130813024Y-122034904D01*
X130716262Y-121986523D01*
X130619500Y-121889761D01*
X130571119Y-121744619D01*
X130571119Y-121647857D01*
X130619500Y-121502714D01*
X130667881Y-121454333D01*
X130571119Y-120535095D02*
X130571119Y-121018904D01*
X131054929Y-121067285D01*
X131006548Y-121018904D01*
X130958167Y-120922142D01*
X130958167Y-120680238D01*
X131006548Y-120583476D01*
X131054929Y-120535095D01*
X131151690Y-120486714D01*
X131393595Y-120486714D01*
X131490357Y-120535095D01*
X131538738Y-120583476D01*
X131587119Y-120680238D01*
X131587119Y-120922142D01*
X131538738Y-121018904D01*
X131490357Y-121067285D01*
X132857119Y-121880387D02*
X132857119Y-122402902D01*
X132857119Y-122141644D02*
X131841119Y-122014644D01*
X131986262Y-122119873D01*
X132083024Y-122219054D01*
X132131405Y-122312188D01*
X132179786Y-121011950D02*
X132857119Y-121096616D01*
X132179786Y-121403836D02*
X132711976Y-121470359D01*
X132808738Y-121438912D01*
X132857119Y-121357873D01*
X132857119Y-121227245D01*
X132808738Y-121134112D01*
X132760357Y-121084521D01*
X132324929Y-120289865D02*
X132324929Y-120594665D01*
X132857119Y-120661188D02*
X131841119Y-120534188D01*
X131841119Y-120098759D01*
X130247571Y-118497047D02*
X130247571Y-117722952D01*
X130634619Y-118110000D02*
X129860524Y-118110000D01*
X196577857Y-118279333D02*
X196626238Y-118327714D01*
X196674619Y-118472857D01*
X196674619Y-118569619D01*
X196626238Y-118714761D01*
X196529476Y-118811523D01*
X196432714Y-118859904D01*
X196239190Y-118908285D01*
X196094048Y-118908285D01*
X195900524Y-118859904D01*
X195803762Y-118811523D01*
X195707000Y-118714761D01*
X195658619Y-118569619D01*
X195658619Y-118472857D01*
X195707000Y-118327714D01*
X195755381Y-118279333D01*
X195658619Y-117408476D02*
X195658619Y-117601999D01*
X195707000Y-117698761D01*
X195755381Y-117747142D01*
X195900524Y-117843904D01*
X196094048Y-117892285D01*
X196481095Y-117892285D01*
X196577857Y-117843904D01*
X196626238Y-117795523D01*
X196674619Y-117698761D01*
X196674619Y-117505238D01*
X196626238Y-117408476D01*
X196577857Y-117360095D01*
X196481095Y-117311714D01*
X196239190Y-117311714D01*
X196142429Y-117360095D01*
X196094048Y-117408476D01*
X196045667Y-117505238D01*
X196045667Y-117698761D01*
X196094048Y-117795523D01*
X196142429Y-117843904D01*
X196239190Y-117892285D01*
X196674619Y-115013315D02*
X196674619Y-115535830D01*
X196674619Y-115274572D02*
X195658619Y-115147572D01*
X195803762Y-115252801D01*
X195900524Y-115351982D01*
X195948905Y-115445116D01*
X195658619Y-114320258D02*
X195658619Y-114233173D01*
X195707000Y-114152135D01*
X195755381Y-114114640D01*
X195852143Y-114083192D01*
X196045667Y-114063839D01*
X196287571Y-114094077D01*
X196481095Y-114161811D01*
X196577857Y-114217449D01*
X196626238Y-114267040D01*
X196674619Y-114360173D01*
X196674619Y-114447258D01*
X196626238Y-114528297D01*
X196577857Y-114565792D01*
X196481095Y-114597240D01*
X196287571Y-114616592D01*
X196045667Y-114586354D01*
X195852143Y-114518621D01*
X195755381Y-114462983D01*
X195707000Y-114413392D01*
X195658619Y-114320258D01*
X195997286Y-113274021D02*
X196674619Y-113358687D01*
X195997286Y-113665907D02*
X196529476Y-113732430D01*
X196626238Y-113700983D01*
X196674619Y-113619944D01*
X196674619Y-113489316D01*
X196626238Y-113396183D01*
X196577857Y-113346592D01*
X196142429Y-112551936D02*
X196142429Y-112856736D01*
X196674619Y-112923259D02*
X195658619Y-112796259D01*
X195658619Y-112360830D01*
X200097571Y-118497047D02*
X200097571Y-117722952D01*
X200484619Y-118110000D02*
X199710524Y-118110000D01*
X115772596Y-123967119D02*
X115772596Y-122951119D01*
X116159643Y-122951119D01*
X116256405Y-122999500D01*
X116304786Y-123047881D01*
X116353167Y-123144643D01*
X116353167Y-123289786D01*
X116304786Y-123386548D01*
X116256405Y-123434929D01*
X116159643Y-123483310D01*
X115772596Y-123483310D01*
X116740215Y-123047881D02*
X116788596Y-122999500D01*
X116885358Y-122951119D01*
X117127262Y-122951119D01*
X117224024Y-122999500D01*
X117272405Y-123047881D01*
X117320786Y-123144643D01*
X117320786Y-123241405D01*
X117272405Y-123386548D01*
X116691834Y-123967119D01*
X117320786Y-123967119D01*
X127509513Y-122951119D02*
X127687313Y-123967119D01*
X128119113Y-122951119D01*
X128668235Y-123434929D02*
X128363435Y-123434929D01*
X128296912Y-123967119D02*
X128423912Y-122951119D01*
X128859341Y-122951119D01*
X129080683Y-123967119D02*
X129207683Y-122951119D01*
X129425398Y-122951119D01*
X129549978Y-122999500D01*
X129624969Y-123096262D01*
X129656417Y-123193024D01*
X129675769Y-123386548D01*
X129657626Y-123531690D01*
X129589893Y-123725214D01*
X129534255Y-123821976D01*
X129435073Y-123918738D01*
X129298398Y-123967119D01*
X129080683Y-123967119D01*
X177411238Y-63354666D02*
X177459619Y-63209523D01*
X177459619Y-62967619D01*
X177411238Y-62870857D01*
X177362857Y-62822476D01*
X177266095Y-62774095D01*
X177169333Y-62774095D01*
X177072571Y-62822476D01*
X177024190Y-62870857D01*
X176975810Y-62967619D01*
X176927429Y-63161142D01*
X176879048Y-63257904D01*
X176830667Y-63306285D01*
X176733905Y-63354666D01*
X176637143Y-63354666D01*
X176540381Y-63306285D01*
X176492000Y-63257904D01*
X176443619Y-63161142D01*
X176443619Y-62919238D01*
X176492000Y-62774095D01*
X176443619Y-62435428D02*
X177459619Y-62193523D01*
X176733905Y-62000000D01*
X177459619Y-61806476D01*
X176443619Y-61564571D01*
X177459619Y-60645333D02*
X177459619Y-61225904D01*
X177459619Y-60935618D02*
X176443619Y-60935618D01*
X176588762Y-61032380D01*
X176685524Y-61129142D01*
X176733905Y-61225904D01*
X191443619Y-51967644D02*
X191443619Y-51880559D01*
X191492000Y-51799521D01*
X191540381Y-51762026D01*
X191637143Y-51730578D01*
X191830667Y-51711225D01*
X192072571Y-51741463D01*
X192266095Y-51809197D01*
X192362857Y-51864835D01*
X192411238Y-51914426D01*
X192459619Y-52007559D01*
X192459619Y-52094644D01*
X192411238Y-52175683D01*
X192362857Y-52213178D01*
X192266095Y-52244626D01*
X192072571Y-52263978D01*
X191830667Y-52233740D01*
X191637143Y-52166007D01*
X191540381Y-52110369D01*
X191492000Y-52060778D01*
X191443619Y-51967644D01*
X177411238Y-79354666D02*
X177459619Y-79209523D01*
X177459619Y-78967619D01*
X177411238Y-78870857D01*
X177362857Y-78822476D01*
X177266095Y-78774095D01*
X177169333Y-78774095D01*
X177072571Y-78822476D01*
X177024190Y-78870857D01*
X176975810Y-78967619D01*
X176927429Y-79161142D01*
X176879048Y-79257904D01*
X176830667Y-79306285D01*
X176733905Y-79354666D01*
X176637143Y-79354666D01*
X176540381Y-79306285D01*
X176492000Y-79257904D01*
X176443619Y-79161142D01*
X176443619Y-78919238D01*
X176492000Y-78774095D01*
X176443619Y-78435428D02*
X177459619Y-78193523D01*
X176733905Y-78000000D01*
X177459619Y-77806476D01*
X176443619Y-77564571D01*
X176540381Y-77225904D02*
X176492000Y-77177523D01*
X176443619Y-77080761D01*
X176443619Y-76838857D01*
X176492000Y-76742095D01*
X176540381Y-76693714D01*
X176637143Y-76645333D01*
X176733905Y-76645333D01*
X176879048Y-76693714D01*
X177459619Y-77274285D01*
X177459619Y-76645333D01*
X192459619Y-67789844D02*
X192459619Y-68312359D01*
X192459619Y-68051101D02*
X191443619Y-67924101D01*
X191588762Y-68029330D01*
X191685524Y-68128511D01*
X191733905Y-68221645D01*
X161411238Y-79354666D02*
X161459619Y-79209523D01*
X161459619Y-78967619D01*
X161411238Y-78870857D01*
X161362857Y-78822476D01*
X161266095Y-78774095D01*
X161169333Y-78774095D01*
X161072571Y-78822476D01*
X161024190Y-78870857D01*
X160975810Y-78967619D01*
X160927429Y-79161142D01*
X160879048Y-79257904D01*
X160830667Y-79306285D01*
X160733905Y-79354666D01*
X160637143Y-79354666D01*
X160540381Y-79306285D01*
X160492000Y-79257904D01*
X160443619Y-79161142D01*
X160443619Y-78919238D01*
X160492000Y-78774095D01*
X160443619Y-78435428D02*
X161459619Y-78193523D01*
X160733905Y-78000000D01*
X161459619Y-77806476D01*
X160443619Y-77564571D01*
X160443619Y-77274285D02*
X160443619Y-76645333D01*
X160830667Y-76983999D01*
X160830667Y-76838857D01*
X160879048Y-76742095D01*
X160927429Y-76693714D01*
X161024190Y-76645333D01*
X161266095Y-76645333D01*
X161362857Y-76693714D01*
X161411238Y-76742095D01*
X161459619Y-76838857D01*
X161459619Y-77129142D01*
X161411238Y-77225904D01*
X161362857Y-77274285D01*
X175540381Y-68197455D02*
X175492000Y-68147864D01*
X175443619Y-68054730D01*
X175443619Y-67837016D01*
X175492000Y-67755978D01*
X175540381Y-67718483D01*
X175637143Y-67687035D01*
X175733905Y-67699130D01*
X175879048Y-67760816D01*
X176459619Y-68355901D01*
X176459619Y-67789844D01*
X145411238Y-79354666D02*
X145459619Y-79209523D01*
X145459619Y-78967619D01*
X145411238Y-78870857D01*
X145362857Y-78822476D01*
X145266095Y-78774095D01*
X145169333Y-78774095D01*
X145072571Y-78822476D01*
X145024190Y-78870857D01*
X144975810Y-78967619D01*
X144927429Y-79161142D01*
X144879048Y-79257904D01*
X144830667Y-79306285D01*
X144733905Y-79354666D01*
X144637143Y-79354666D01*
X144540381Y-79306285D01*
X144492000Y-79257904D01*
X144443619Y-79161142D01*
X144443619Y-78919238D01*
X144492000Y-78774095D01*
X144443619Y-78435428D02*
X145459619Y-78193523D01*
X144733905Y-78000000D01*
X145459619Y-77806476D01*
X144443619Y-77564571D01*
X144782286Y-76742095D02*
X145459619Y-76742095D01*
X144395238Y-76983999D02*
X145120952Y-77225904D01*
X145120952Y-76596952D01*
X159443619Y-68228901D02*
X159443619Y-67662844D01*
X159830667Y-68016025D01*
X159830667Y-67885397D01*
X159879048Y-67804359D01*
X159927429Y-67766864D01*
X160024190Y-67735416D01*
X160266095Y-67765654D01*
X160362857Y-67821292D01*
X160411238Y-67870883D01*
X160459619Y-67964016D01*
X160459619Y-68225273D01*
X160411238Y-68306312D01*
X160362857Y-68343806D01*
X177411238Y-95354666D02*
X177459619Y-95209523D01*
X177459619Y-94967619D01*
X177411238Y-94870857D01*
X177362857Y-94822476D01*
X177266095Y-94774095D01*
X177169333Y-94774095D01*
X177072571Y-94822476D01*
X177024190Y-94870857D01*
X176975810Y-94967619D01*
X176927429Y-95161142D01*
X176879048Y-95257904D01*
X176830667Y-95306285D01*
X176733905Y-95354666D01*
X176637143Y-95354666D01*
X176540381Y-95306285D01*
X176492000Y-95257904D01*
X176443619Y-95161142D01*
X176443619Y-94919238D01*
X176492000Y-94774095D01*
X176443619Y-94435428D02*
X177459619Y-94193523D01*
X176733905Y-94000000D01*
X177459619Y-93806476D01*
X176443619Y-93564571D01*
X176443619Y-92693714D02*
X176443619Y-93177523D01*
X176927429Y-93225904D01*
X176879048Y-93177523D01*
X176830667Y-93080761D01*
X176830667Y-92838857D01*
X176879048Y-92742095D01*
X176927429Y-92693714D01*
X177024190Y-92645333D01*
X177266095Y-92645333D01*
X177362857Y-92693714D01*
X177411238Y-92742095D01*
X177459619Y-92838857D01*
X177459619Y-93080761D01*
X177411238Y-93177523D01*
X177362857Y-93225904D01*
X191782286Y-83792264D02*
X192459619Y-83876930D01*
X191395238Y-83961597D02*
X192120952Y-84270026D01*
X192120952Y-83703968D01*
X161411238Y-95354666D02*
X161459619Y-95209523D01*
X161459619Y-94967619D01*
X161411238Y-94870857D01*
X161362857Y-94822476D01*
X161266095Y-94774095D01*
X161169333Y-94774095D01*
X161072571Y-94822476D01*
X161024190Y-94870857D01*
X160975810Y-94967619D01*
X160927429Y-95161142D01*
X160879048Y-95257904D01*
X160830667Y-95306285D01*
X160733905Y-95354666D01*
X160637143Y-95354666D01*
X160540381Y-95306285D01*
X160492000Y-95257904D01*
X160443619Y-95161142D01*
X160443619Y-94919238D01*
X160492000Y-94774095D01*
X160443619Y-94435428D02*
X161459619Y-94193523D01*
X160733905Y-94000000D01*
X161459619Y-93806476D01*
X160443619Y-93564571D01*
X160443619Y-92742095D02*
X160443619Y-92935618D01*
X160492000Y-93032380D01*
X160540381Y-93080761D01*
X160685524Y-93177523D01*
X160879048Y-93225904D01*
X161266095Y-93225904D01*
X161362857Y-93177523D01*
X161411238Y-93129142D01*
X161459619Y-93032380D01*
X161459619Y-92838857D01*
X161411238Y-92742095D01*
X161362857Y-92693714D01*
X161266095Y-92645333D01*
X161024190Y-92645333D01*
X160927429Y-92693714D01*
X160879048Y-92742095D01*
X160830667Y-92838857D01*
X160830667Y-93032380D01*
X160879048Y-93129142D01*
X160927429Y-93177523D01*
X161024190Y-93225904D01*
X175443619Y-83706387D02*
X175443619Y-84141816D01*
X175927429Y-84245836D01*
X175879048Y-84196245D01*
X175830667Y-84103111D01*
X175830667Y-83885397D01*
X175879048Y-83804359D01*
X175927429Y-83766864D01*
X176024190Y-83735416D01*
X176266095Y-83765654D01*
X176362857Y-83821292D01*
X176411238Y-83870883D01*
X176459619Y-83964016D01*
X176459619Y-84181730D01*
X176411238Y-84262769D01*
X176362857Y-84300264D01*
X145411238Y-95354666D02*
X145459619Y-95209523D01*
X145459619Y-94967619D01*
X145411238Y-94870857D01*
X145362857Y-94822476D01*
X145266095Y-94774095D01*
X145169333Y-94774095D01*
X145072571Y-94822476D01*
X145024190Y-94870857D01*
X144975810Y-94967619D01*
X144927429Y-95161142D01*
X144879048Y-95257904D01*
X144830667Y-95306285D01*
X144733905Y-95354666D01*
X144637143Y-95354666D01*
X144540381Y-95306285D01*
X144492000Y-95257904D01*
X144443619Y-95161142D01*
X144443619Y-94919238D01*
X144492000Y-94774095D01*
X144443619Y-94435428D02*
X145459619Y-94193523D01*
X144733905Y-94000000D01*
X145459619Y-93806476D01*
X144443619Y-93564571D01*
X144443619Y-93274285D02*
X144443619Y-92596952D01*
X145459619Y-93032380D01*
X159443619Y-83749930D02*
X159443619Y-83924101D01*
X159492000Y-84017235D01*
X159540381Y-84066826D01*
X159685524Y-84172054D01*
X159879048Y-84239788D01*
X160266095Y-84288169D01*
X160362857Y-84256721D01*
X160411238Y-84219226D01*
X160459619Y-84138187D01*
X160459619Y-83964016D01*
X160411238Y-83870883D01*
X160362857Y-83821292D01*
X160266095Y-83765654D01*
X160024190Y-83735416D01*
X159927429Y-83766864D01*
X159879048Y-83804359D01*
X159830667Y-83885397D01*
X159830667Y-84059568D01*
X159879048Y-84152702D01*
X159927429Y-84202293D01*
X160024190Y-84257931D01*
X177411238Y-111354666D02*
X177459619Y-111209523D01*
X177459619Y-110967619D01*
X177411238Y-110870857D01*
X177362857Y-110822476D01*
X177266095Y-110774095D01*
X177169333Y-110774095D01*
X177072571Y-110822476D01*
X177024190Y-110870857D01*
X176975810Y-110967619D01*
X176927429Y-111161142D01*
X176879048Y-111257904D01*
X176830667Y-111306285D01*
X176733905Y-111354666D01*
X176637143Y-111354666D01*
X176540381Y-111306285D01*
X176492000Y-111257904D01*
X176443619Y-111161142D01*
X176443619Y-110919238D01*
X176492000Y-110774095D01*
X176443619Y-110435428D02*
X177459619Y-110193523D01*
X176733905Y-110000000D01*
X177459619Y-109806476D01*
X176443619Y-109564571D01*
X176879048Y-109032380D02*
X176830667Y-109129142D01*
X176782286Y-109177523D01*
X176685524Y-109225904D01*
X176637143Y-109225904D01*
X176540381Y-109177523D01*
X176492000Y-109129142D01*
X176443619Y-109032380D01*
X176443619Y-108838857D01*
X176492000Y-108742095D01*
X176540381Y-108693714D01*
X176637143Y-108645333D01*
X176685524Y-108645333D01*
X176782286Y-108693714D01*
X176830667Y-108742095D01*
X176879048Y-108838857D01*
X176879048Y-109032380D01*
X176927429Y-109129142D01*
X176975810Y-109177523D01*
X177072571Y-109225904D01*
X177266095Y-109225904D01*
X177362857Y-109177523D01*
X177411238Y-109129142D01*
X177459619Y-109032380D01*
X177459619Y-108838857D01*
X177411238Y-108742095D01*
X177362857Y-108693714D01*
X177266095Y-108645333D01*
X177072571Y-108645333D01*
X176975810Y-108693714D01*
X176927429Y-108742095D01*
X176879048Y-108838857D01*
X191443619Y-100228901D02*
X191443619Y-99619301D01*
X192459619Y-100138187D01*
X161411238Y-111354666D02*
X161459619Y-111209523D01*
X161459619Y-110967619D01*
X161411238Y-110870857D01*
X161362857Y-110822476D01*
X161266095Y-110774095D01*
X161169333Y-110774095D01*
X161072571Y-110822476D01*
X161024190Y-110870857D01*
X160975810Y-110967619D01*
X160927429Y-111161142D01*
X160879048Y-111257904D01*
X160830667Y-111306285D01*
X160733905Y-111354666D01*
X160637143Y-111354666D01*
X160540381Y-111306285D01*
X160492000Y-111257904D01*
X160443619Y-111161142D01*
X160443619Y-110919238D01*
X160492000Y-110774095D01*
X160443619Y-110435428D02*
X161459619Y-110193523D01*
X160733905Y-110000000D01*
X161459619Y-109806476D01*
X160443619Y-109564571D01*
X161459619Y-109129142D02*
X161459619Y-108935618D01*
X161411238Y-108838857D01*
X161362857Y-108790476D01*
X161217714Y-108693714D01*
X161024190Y-108645333D01*
X160637143Y-108645333D01*
X160540381Y-108693714D01*
X160492000Y-108742095D01*
X160443619Y-108838857D01*
X160443619Y-109032380D01*
X160492000Y-109129142D01*
X160540381Y-109177523D01*
X160637143Y-109225904D01*
X160879048Y-109225904D01*
X160975810Y-109177523D01*
X161024190Y-109129142D01*
X161072571Y-109032380D01*
X161072571Y-108838857D01*
X161024190Y-108742095D01*
X160975810Y-108693714D01*
X160879048Y-108645333D01*
X175879048Y-100065616D02*
X175830667Y-100146654D01*
X175782286Y-100184150D01*
X175685524Y-100215597D01*
X175637143Y-100209550D01*
X175540381Y-100153912D01*
X175492000Y-100104321D01*
X175443619Y-100011187D01*
X175443619Y-99837016D01*
X175492000Y-99755978D01*
X175540381Y-99718483D01*
X175637143Y-99687035D01*
X175685524Y-99693082D01*
X175782286Y-99748721D01*
X175830667Y-99798311D01*
X175879048Y-99891445D01*
X175879048Y-100065616D01*
X175927429Y-100158750D01*
X175975810Y-100208340D01*
X176072571Y-100263978D01*
X176266095Y-100288169D01*
X176362857Y-100256721D01*
X176411238Y-100219226D01*
X176459619Y-100138187D01*
X176459619Y-99964016D01*
X176411238Y-99870883D01*
X176362857Y-99821292D01*
X176266095Y-99765654D01*
X176072571Y-99741463D01*
X175975810Y-99772911D01*
X175927429Y-99810407D01*
X175879048Y-99891445D01*
X145411238Y-111838476D02*
X145459619Y-111693333D01*
X145459619Y-111451429D01*
X145411238Y-111354667D01*
X145362857Y-111306286D01*
X145266095Y-111257905D01*
X145169333Y-111257905D01*
X145072571Y-111306286D01*
X145024190Y-111354667D01*
X144975810Y-111451429D01*
X144927429Y-111644952D01*
X144879048Y-111741714D01*
X144830667Y-111790095D01*
X144733905Y-111838476D01*
X144637143Y-111838476D01*
X144540381Y-111790095D01*
X144492000Y-111741714D01*
X144443619Y-111644952D01*
X144443619Y-111403048D01*
X144492000Y-111257905D01*
X144443619Y-110919238D02*
X145459619Y-110677333D01*
X144733905Y-110483810D01*
X145459619Y-110290286D01*
X144443619Y-110048381D01*
X145459619Y-109129143D02*
X145459619Y-109709714D01*
X145459619Y-109419428D02*
X144443619Y-109419428D01*
X144588762Y-109516190D01*
X144685524Y-109612952D01*
X144733905Y-109709714D01*
X144443619Y-108500190D02*
X144443619Y-108403429D01*
X144492000Y-108306667D01*
X144540381Y-108258286D01*
X144637143Y-108209905D01*
X144830667Y-108161524D01*
X145072571Y-108161524D01*
X145266095Y-108209905D01*
X145362857Y-108258286D01*
X145411238Y-108306667D01*
X145459619Y-108403429D01*
X145459619Y-108500190D01*
X145411238Y-108596952D01*
X145362857Y-108645333D01*
X145266095Y-108693714D01*
X145072571Y-108742095D01*
X144830667Y-108742095D01*
X144637143Y-108693714D01*
X144540381Y-108645333D01*
X144492000Y-108596952D01*
X144443619Y-108500190D01*
X160459619Y-100225273D02*
X160459619Y-100051101D01*
X160411238Y-99957969D01*
X160362857Y-99908378D01*
X160217714Y-99803149D01*
X160024190Y-99735416D01*
X159637143Y-99687035D01*
X159540381Y-99718483D01*
X159492000Y-99755978D01*
X159443619Y-99837016D01*
X159443619Y-100011187D01*
X159492000Y-100104321D01*
X159540381Y-100153912D01*
X159637143Y-100209550D01*
X159879048Y-100239788D01*
X159975810Y-100208340D01*
X160024190Y-100170845D01*
X160072571Y-100089806D01*
X160072571Y-99915635D01*
X160024190Y-99822502D01*
X159975810Y-99772911D01*
X159879048Y-99717273D01*
X129411238Y-111838476D02*
X129459619Y-111693333D01*
X129459619Y-111451429D01*
X129411238Y-111354667D01*
X129362857Y-111306286D01*
X129266095Y-111257905D01*
X129169333Y-111257905D01*
X129072571Y-111306286D01*
X129024190Y-111354667D01*
X128975810Y-111451429D01*
X128927429Y-111644952D01*
X128879048Y-111741714D01*
X128830667Y-111790095D01*
X128733905Y-111838476D01*
X128637143Y-111838476D01*
X128540381Y-111790095D01*
X128492000Y-111741714D01*
X128443619Y-111644952D01*
X128443619Y-111403048D01*
X128492000Y-111257905D01*
X128443619Y-110919238D02*
X129459619Y-110677333D01*
X128733905Y-110483810D01*
X129459619Y-110290286D01*
X128443619Y-110048381D01*
X129459619Y-109129143D02*
X129459619Y-109709714D01*
X129459619Y-109419428D02*
X128443619Y-109419428D01*
X128588762Y-109516190D01*
X128685524Y-109612952D01*
X128733905Y-109709714D01*
X129459619Y-108161524D02*
X129459619Y-108742095D01*
X129459619Y-108451809D02*
X128443619Y-108451809D01*
X128588762Y-108548571D01*
X128685524Y-108645333D01*
X128733905Y-108742095D01*
X144169333Y-100232531D02*
X144169333Y-99797102D01*
X144459619Y-100355901D02*
X143443619Y-99924101D01*
X144459619Y-99746301D01*
X129411238Y-96838476D02*
X129459619Y-96693333D01*
X129459619Y-96451429D01*
X129411238Y-96354667D01*
X129362857Y-96306286D01*
X129266095Y-96257905D01*
X129169333Y-96257905D01*
X129072571Y-96306286D01*
X129024190Y-96354667D01*
X128975810Y-96451429D01*
X128927429Y-96644952D01*
X128879048Y-96741714D01*
X128830667Y-96790095D01*
X128733905Y-96838476D01*
X128637143Y-96838476D01*
X128540381Y-96790095D01*
X128492000Y-96741714D01*
X128443619Y-96644952D01*
X128443619Y-96403048D01*
X128492000Y-96257905D01*
X128443619Y-95919238D02*
X129459619Y-95677333D01*
X128733905Y-95483810D01*
X129459619Y-95290286D01*
X128443619Y-95048381D01*
X129459619Y-94129143D02*
X129459619Y-94709714D01*
X129459619Y-94419428D02*
X128443619Y-94419428D01*
X128588762Y-94516190D01*
X128685524Y-94612952D01*
X128733905Y-94709714D01*
X128540381Y-93742095D02*
X128492000Y-93693714D01*
X128443619Y-93596952D01*
X128443619Y-93355048D01*
X128492000Y-93258286D01*
X128540381Y-93209905D01*
X128637143Y-93161524D01*
X128733905Y-93161524D01*
X128879048Y-93209905D01*
X129459619Y-93790476D01*
X129459619Y-93161524D01*
X143927429Y-83919265D02*
X143975810Y-83794683D01*
X144024190Y-83757188D01*
X144120952Y-83725740D01*
X144266095Y-83743883D01*
X144362857Y-83799521D01*
X144411238Y-83849112D01*
X144459619Y-83942245D01*
X144459619Y-84290588D01*
X143443619Y-84163588D01*
X143443619Y-83858788D01*
X143492000Y-83777750D01*
X143540381Y-83740255D01*
X143637143Y-83708807D01*
X143733905Y-83720902D01*
X143830667Y-83776540D01*
X143879048Y-83826131D01*
X143927429Y-83919265D01*
X143927429Y-84224065D01*
X129411238Y-79838476D02*
X129459619Y-79693333D01*
X129459619Y-79451429D01*
X129411238Y-79354667D01*
X129362857Y-79306286D01*
X129266095Y-79257905D01*
X129169333Y-79257905D01*
X129072571Y-79306286D01*
X129024190Y-79354667D01*
X128975810Y-79451429D01*
X128927429Y-79644952D01*
X128879048Y-79741714D01*
X128830667Y-79790095D01*
X128733905Y-79838476D01*
X128637143Y-79838476D01*
X128540381Y-79790095D01*
X128492000Y-79741714D01*
X128443619Y-79644952D01*
X128443619Y-79403048D01*
X128492000Y-79257905D01*
X128443619Y-78919238D02*
X129459619Y-78677333D01*
X128733905Y-78483810D01*
X129459619Y-78290286D01*
X128443619Y-78048381D01*
X129459619Y-77129143D02*
X129459619Y-77709714D01*
X129459619Y-77419428D02*
X128443619Y-77419428D01*
X128588762Y-77516190D01*
X128685524Y-77612952D01*
X128733905Y-77709714D01*
X128443619Y-76790476D02*
X128443619Y-76161524D01*
X128830667Y-76500190D01*
X128830667Y-76355048D01*
X128879048Y-76258286D01*
X128927429Y-76209905D01*
X129024190Y-76161524D01*
X129266095Y-76161524D01*
X129362857Y-76209905D01*
X129411238Y-76258286D01*
X129459619Y-76355048D01*
X129459619Y-76645333D01*
X129411238Y-76742095D01*
X129362857Y-76790476D01*
X144362857Y-67755978D02*
X144411238Y-67805569D01*
X144459619Y-67942245D01*
X144459619Y-68029331D01*
X144411238Y-68153912D01*
X144314476Y-68228902D01*
X144217714Y-68260350D01*
X144024190Y-68279703D01*
X143879048Y-68261560D01*
X143685524Y-68193826D01*
X143588762Y-68138188D01*
X143492000Y-68039007D01*
X143443619Y-67902331D01*
X143443619Y-67815245D01*
X143492000Y-67690664D01*
X143540381Y-67653169D01*
X129411238Y-63838476D02*
X129459619Y-63693333D01*
X129459619Y-63451429D01*
X129411238Y-63354667D01*
X129362857Y-63306286D01*
X129266095Y-63257905D01*
X129169333Y-63257905D01*
X129072571Y-63306286D01*
X129024190Y-63354667D01*
X128975810Y-63451429D01*
X128927429Y-63644952D01*
X128879048Y-63741714D01*
X128830667Y-63790095D01*
X128733905Y-63838476D01*
X128637143Y-63838476D01*
X128540381Y-63790095D01*
X128492000Y-63741714D01*
X128443619Y-63644952D01*
X128443619Y-63403048D01*
X128492000Y-63257905D01*
X128443619Y-62919238D02*
X129459619Y-62677333D01*
X128733905Y-62483810D01*
X129459619Y-62290286D01*
X128443619Y-62048381D01*
X129459619Y-61129143D02*
X129459619Y-61709714D01*
X129459619Y-61419428D02*
X128443619Y-61419428D01*
X128588762Y-61516190D01*
X128685524Y-61612952D01*
X128733905Y-61709714D01*
X128782286Y-60258286D02*
X129459619Y-60258286D01*
X128395238Y-60500190D02*
X129120952Y-60742095D01*
X129120952Y-60113143D01*
X144459619Y-52290588D02*
X143443619Y-52163588D01*
X143443619Y-51945873D01*
X143492000Y-51821293D01*
X143588762Y-51746302D01*
X143685524Y-51714854D01*
X143879048Y-51695502D01*
X144024190Y-51713645D01*
X144217714Y-51781378D01*
X144314476Y-51837016D01*
X144411238Y-51936198D01*
X144459619Y-52072873D01*
X144459619Y-52290588D01*
X145411238Y-63838476D02*
X145459619Y-63693333D01*
X145459619Y-63451429D01*
X145411238Y-63354667D01*
X145362857Y-63306286D01*
X145266095Y-63257905D01*
X145169333Y-63257905D01*
X145072571Y-63306286D01*
X145024190Y-63354667D01*
X144975810Y-63451429D01*
X144927429Y-63644952D01*
X144879048Y-63741714D01*
X144830667Y-63790095D01*
X144733905Y-63838476D01*
X144637143Y-63838476D01*
X144540381Y-63790095D01*
X144492000Y-63741714D01*
X144443619Y-63644952D01*
X144443619Y-63403048D01*
X144492000Y-63257905D01*
X144443619Y-62919238D02*
X145459619Y-62677333D01*
X144733905Y-62483810D01*
X145459619Y-62290286D01*
X144443619Y-62048381D01*
X145459619Y-61129143D02*
X145459619Y-61709714D01*
X145459619Y-61419428D02*
X144443619Y-61419428D01*
X144588762Y-61516190D01*
X144685524Y-61612952D01*
X144733905Y-61709714D01*
X144443619Y-60209905D02*
X144443619Y-60693714D01*
X144927429Y-60742095D01*
X144879048Y-60693714D01*
X144830667Y-60596952D01*
X144830667Y-60355048D01*
X144879048Y-60258286D01*
X144927429Y-60209905D01*
X145024190Y-60161524D01*
X145266095Y-60161524D01*
X145362857Y-60209905D01*
X145411238Y-60258286D01*
X145459619Y-60355048D01*
X145459619Y-60596952D01*
X145411238Y-60693714D01*
X145362857Y-60742095D01*
X159927429Y-52180522D02*
X159927429Y-51875722D01*
X160459619Y-51811616D02*
X160459619Y-52247045D01*
X159443619Y-52120045D01*
X159443619Y-51684616D01*
X161411238Y-63838476D02*
X161459619Y-63693333D01*
X161459619Y-63451429D01*
X161411238Y-63354667D01*
X161362857Y-63306286D01*
X161266095Y-63257905D01*
X161169333Y-63257905D01*
X161072571Y-63306286D01*
X161024190Y-63354667D01*
X160975810Y-63451429D01*
X160927429Y-63644952D01*
X160879048Y-63741714D01*
X160830667Y-63790095D01*
X160733905Y-63838476D01*
X160637143Y-63838476D01*
X160540381Y-63790095D01*
X160492000Y-63741714D01*
X160443619Y-63644952D01*
X160443619Y-63403048D01*
X160492000Y-63257905D01*
X160443619Y-62919238D02*
X161459619Y-62677333D01*
X160733905Y-62483810D01*
X161459619Y-62290286D01*
X160443619Y-62048381D01*
X161459619Y-61129143D02*
X161459619Y-61709714D01*
X161459619Y-61419428D02*
X160443619Y-61419428D01*
X160588762Y-61516190D01*
X160685524Y-61612952D01*
X160733905Y-61709714D01*
X160443619Y-60258286D02*
X160443619Y-60451809D01*
X160492000Y-60548571D01*
X160540381Y-60596952D01*
X160685524Y-60693714D01*
X160879048Y-60742095D01*
X161266095Y-60742095D01*
X161362857Y-60693714D01*
X161411238Y-60645333D01*
X161459619Y-60548571D01*
X161459619Y-60355048D01*
X161411238Y-60258286D01*
X161362857Y-60209905D01*
X161266095Y-60161524D01*
X161024190Y-60161524D01*
X160927429Y-60209905D01*
X160879048Y-60258286D01*
X160830667Y-60355048D01*
X160830667Y-60548571D01*
X160879048Y-60645333D01*
X160927429Y-60693714D01*
X161024190Y-60742095D01*
X175927429Y-51853950D02*
X175927429Y-52158750D01*
X176459619Y-52225273D02*
X175443619Y-52098273D01*
X175443619Y-51662844D01*
X113411238Y-111838476D02*
X113459619Y-111693333D01*
X113459619Y-111451429D01*
X113411238Y-111354667D01*
X113362857Y-111306286D01*
X113266095Y-111257905D01*
X113169333Y-111257905D01*
X113072571Y-111306286D01*
X113024190Y-111354667D01*
X112975810Y-111451429D01*
X112927429Y-111644952D01*
X112879048Y-111741714D01*
X112830667Y-111790095D01*
X112733905Y-111838476D01*
X112637143Y-111838476D01*
X112540381Y-111790095D01*
X112492000Y-111741714D01*
X112443619Y-111644952D01*
X112443619Y-111403048D01*
X112492000Y-111257905D01*
X112443619Y-110919238D02*
X113459619Y-110677333D01*
X112733905Y-110483810D01*
X113459619Y-110290286D01*
X112443619Y-110048381D01*
X113459619Y-109129143D02*
X113459619Y-109709714D01*
X113459619Y-109419428D02*
X112443619Y-109419428D01*
X112588762Y-109516190D01*
X112685524Y-109612952D01*
X112733905Y-109709714D01*
X112443619Y-108790476D02*
X112443619Y-108113143D01*
X113459619Y-108548571D01*
X128362857Y-105564491D02*
X128411238Y-105614082D01*
X128459619Y-105750758D01*
X128459619Y-105837844D01*
X128411238Y-105962425D01*
X128314476Y-106037415D01*
X128217714Y-106068863D01*
X128024190Y-106088216D01*
X127879048Y-106070073D01*
X127685524Y-106002339D01*
X127588762Y-105946701D01*
X127492000Y-105847520D01*
X127443619Y-105710844D01*
X127443619Y-105623758D01*
X127492000Y-105499177D01*
X127540381Y-105461682D01*
X128459619Y-105054072D02*
X128411238Y-105135111D01*
X128362857Y-105172606D01*
X128266095Y-105204054D01*
X127975810Y-105167768D01*
X127879048Y-105112130D01*
X127830667Y-105062539D01*
X127782286Y-104969406D01*
X127782286Y-104838778D01*
X127830667Y-104757739D01*
X127879048Y-104720244D01*
X127975810Y-104688796D01*
X128266095Y-104725082D01*
X128362857Y-104780720D01*
X128411238Y-104830311D01*
X128459619Y-104923444D01*
X128459619Y-105054072D01*
X127782286Y-104272721D02*
X128459619Y-104357387D01*
X127879048Y-104284816D02*
X127830667Y-104235225D01*
X127782286Y-104142092D01*
X127782286Y-104011464D01*
X127830667Y-103930425D01*
X127927429Y-103898978D01*
X128459619Y-103965501D01*
X127782286Y-103576035D02*
X127782286Y-103227692D01*
X127443619Y-103403073D02*
X128314476Y-103511930D01*
X128411238Y-103480483D01*
X128459619Y-103399444D01*
X128459619Y-103312358D01*
X128459619Y-103007559D02*
X127782286Y-102922893D01*
X127975810Y-102947083D02*
X127879048Y-102891445D01*
X127830667Y-102841854D01*
X127782286Y-102748721D01*
X127782286Y-102661636D01*
X128459619Y-102310873D02*
X128411238Y-102391912D01*
X128362857Y-102429407D01*
X128266095Y-102460855D01*
X127975810Y-102424569D01*
X127879048Y-102368931D01*
X127830667Y-102319340D01*
X127782286Y-102226207D01*
X127782286Y-102095579D01*
X127830667Y-102014540D01*
X127879048Y-101977045D01*
X127975810Y-101945597D01*
X128266095Y-101981883D01*
X128362857Y-102037521D01*
X128411238Y-102087112D01*
X128459619Y-102180245D01*
X128459619Y-102310873D01*
X128459619Y-101483559D02*
X128411238Y-101564598D01*
X128314476Y-101596045D01*
X127443619Y-101487188D01*
X128556381Y-101365027D02*
X128556381Y-100668341D01*
X127443619Y-100137359D02*
X127443619Y-100050274D01*
X127492000Y-99969236D01*
X127540381Y-99931741D01*
X127637143Y-99900293D01*
X127830667Y-99880940D01*
X128072571Y-99911178D01*
X128266095Y-99978912D01*
X128362857Y-100034550D01*
X128411238Y-100084141D01*
X128459619Y-100177274D01*
X128459619Y-100264359D01*
X128411238Y-100345398D01*
X128362857Y-100382893D01*
X128266095Y-100414341D01*
X128072571Y-100433693D01*
X127830667Y-100403455D01*
X127637143Y-100335722D01*
X127540381Y-100280084D01*
X127492000Y-100230493D01*
X127443619Y-100137359D01*
X113411238Y-95838476D02*
X113459619Y-95693333D01*
X113459619Y-95451429D01*
X113411238Y-95354667D01*
X113362857Y-95306286D01*
X113266095Y-95257905D01*
X113169333Y-95257905D01*
X113072571Y-95306286D01*
X113024190Y-95354667D01*
X112975810Y-95451429D01*
X112927429Y-95644952D01*
X112879048Y-95741714D01*
X112830667Y-95790095D01*
X112733905Y-95838476D01*
X112637143Y-95838476D01*
X112540381Y-95790095D01*
X112492000Y-95741714D01*
X112443619Y-95644952D01*
X112443619Y-95403048D01*
X112492000Y-95257905D01*
X112443619Y-94919238D02*
X113459619Y-94677333D01*
X112733905Y-94483810D01*
X113459619Y-94290286D01*
X112443619Y-94048381D01*
X113459619Y-93129143D02*
X113459619Y-93709714D01*
X113459619Y-93419428D02*
X112443619Y-93419428D01*
X112588762Y-93516190D01*
X112685524Y-93612952D01*
X112733905Y-93709714D01*
X112879048Y-92548571D02*
X112830667Y-92645333D01*
X112782286Y-92693714D01*
X112685524Y-92742095D01*
X112637143Y-92742095D01*
X112540381Y-92693714D01*
X112492000Y-92645333D01*
X112443619Y-92548571D01*
X112443619Y-92355048D01*
X112492000Y-92258286D01*
X112540381Y-92209905D01*
X112637143Y-92161524D01*
X112685524Y-92161524D01*
X112782286Y-92209905D01*
X112830667Y-92258286D01*
X112879048Y-92355048D01*
X112879048Y-92548571D01*
X112927429Y-92645333D01*
X112975810Y-92693714D01*
X113072571Y-92742095D01*
X113266095Y-92742095D01*
X113362857Y-92693714D01*
X113411238Y-92645333D01*
X113459619Y-92548571D01*
X113459619Y-92355048D01*
X113411238Y-92258286D01*
X113362857Y-92209905D01*
X113266095Y-92161524D01*
X113072571Y-92161524D01*
X112975810Y-92209905D01*
X112927429Y-92258286D01*
X112879048Y-92355048D01*
X128362857Y-89564491D02*
X128411238Y-89614082D01*
X128459619Y-89750758D01*
X128459619Y-89837844D01*
X128411238Y-89962425D01*
X128314476Y-90037415D01*
X128217714Y-90068863D01*
X128024190Y-90088216D01*
X127879048Y-90070073D01*
X127685524Y-90002339D01*
X127588762Y-89946701D01*
X127492000Y-89847520D01*
X127443619Y-89710844D01*
X127443619Y-89623758D01*
X127492000Y-89499177D01*
X127540381Y-89461682D01*
X128459619Y-89054072D02*
X128411238Y-89135111D01*
X128362857Y-89172606D01*
X128266095Y-89204054D01*
X127975810Y-89167768D01*
X127879048Y-89112130D01*
X127830667Y-89062539D01*
X127782286Y-88969406D01*
X127782286Y-88838778D01*
X127830667Y-88757739D01*
X127879048Y-88720244D01*
X127975810Y-88688796D01*
X128266095Y-88725082D01*
X128362857Y-88780720D01*
X128411238Y-88830311D01*
X128459619Y-88923444D01*
X128459619Y-89054072D01*
X127782286Y-88272721D02*
X128459619Y-88357387D01*
X127879048Y-88284816D02*
X127830667Y-88235225D01*
X127782286Y-88142092D01*
X127782286Y-88011464D01*
X127830667Y-87930425D01*
X127927429Y-87898978D01*
X128459619Y-87965501D01*
X127782286Y-87576035D02*
X127782286Y-87227692D01*
X127443619Y-87403073D02*
X128314476Y-87511930D01*
X128411238Y-87480483D01*
X128459619Y-87399444D01*
X128459619Y-87312358D01*
X128459619Y-87007559D02*
X127782286Y-86922893D01*
X127975810Y-86947083D02*
X127879048Y-86891445D01*
X127830667Y-86841854D01*
X127782286Y-86748721D01*
X127782286Y-86661636D01*
X128459619Y-86310873D02*
X128411238Y-86391912D01*
X128362857Y-86429407D01*
X128266095Y-86460855D01*
X127975810Y-86424569D01*
X127879048Y-86368931D01*
X127830667Y-86319340D01*
X127782286Y-86226207D01*
X127782286Y-86095579D01*
X127830667Y-86014540D01*
X127879048Y-85977045D01*
X127975810Y-85945597D01*
X128266095Y-85981883D01*
X128362857Y-86037521D01*
X128411238Y-86087112D01*
X128459619Y-86180245D01*
X128459619Y-86310873D01*
X128459619Y-85483559D02*
X128411238Y-85564598D01*
X128314476Y-85596045D01*
X127443619Y-85487188D01*
X128556381Y-85365027D02*
X128556381Y-84668341D01*
X128459619Y-83959559D02*
X128459619Y-84482074D01*
X128459619Y-84220816D02*
X127443619Y-84093816D01*
X127588762Y-84199045D01*
X127685524Y-84298226D01*
X127733905Y-84391360D01*
X113411238Y-79838476D02*
X113459619Y-79693333D01*
X113459619Y-79451429D01*
X113411238Y-79354667D01*
X113362857Y-79306286D01*
X113266095Y-79257905D01*
X113169333Y-79257905D01*
X113072571Y-79306286D01*
X113024190Y-79354667D01*
X112975810Y-79451429D01*
X112927429Y-79644952D01*
X112879048Y-79741714D01*
X112830667Y-79790095D01*
X112733905Y-79838476D01*
X112637143Y-79838476D01*
X112540381Y-79790095D01*
X112492000Y-79741714D01*
X112443619Y-79644952D01*
X112443619Y-79403048D01*
X112492000Y-79257905D01*
X112443619Y-78919238D02*
X113459619Y-78677333D01*
X112733905Y-78483810D01*
X113459619Y-78290286D01*
X112443619Y-78048381D01*
X113459619Y-77129143D02*
X113459619Y-77709714D01*
X113459619Y-77419428D02*
X112443619Y-77419428D01*
X112588762Y-77516190D01*
X112685524Y-77612952D01*
X112733905Y-77709714D01*
X113459619Y-76645333D02*
X113459619Y-76451809D01*
X113411238Y-76355048D01*
X113362857Y-76306667D01*
X113217714Y-76209905D01*
X113024190Y-76161524D01*
X112637143Y-76161524D01*
X112540381Y-76209905D01*
X112492000Y-76258286D01*
X112443619Y-76355048D01*
X112443619Y-76548571D01*
X112492000Y-76645333D01*
X112540381Y-76693714D01*
X112637143Y-76742095D01*
X112879048Y-76742095D01*
X112975810Y-76693714D01*
X113024190Y-76645333D01*
X113072571Y-76548571D01*
X113072571Y-76355048D01*
X113024190Y-76258286D01*
X112975810Y-76209905D01*
X112879048Y-76161524D01*
X128362857Y-73564491D02*
X128411238Y-73614082D01*
X128459619Y-73750758D01*
X128459619Y-73837844D01*
X128411238Y-73962425D01*
X128314476Y-74037415D01*
X128217714Y-74068863D01*
X128024190Y-74088216D01*
X127879048Y-74070073D01*
X127685524Y-74002339D01*
X127588762Y-73946701D01*
X127492000Y-73847520D01*
X127443619Y-73710844D01*
X127443619Y-73623758D01*
X127492000Y-73499177D01*
X127540381Y-73461682D01*
X128459619Y-73054072D02*
X128411238Y-73135111D01*
X128362857Y-73172606D01*
X128266095Y-73204054D01*
X127975810Y-73167768D01*
X127879048Y-73112130D01*
X127830667Y-73062539D01*
X127782286Y-72969406D01*
X127782286Y-72838778D01*
X127830667Y-72757739D01*
X127879048Y-72720244D01*
X127975810Y-72688796D01*
X128266095Y-72725082D01*
X128362857Y-72780720D01*
X128411238Y-72830311D01*
X128459619Y-72923444D01*
X128459619Y-73054072D01*
X127782286Y-72272721D02*
X128459619Y-72357387D01*
X127879048Y-72284816D02*
X127830667Y-72235225D01*
X127782286Y-72142092D01*
X127782286Y-72011464D01*
X127830667Y-71930425D01*
X127927429Y-71898978D01*
X128459619Y-71965501D01*
X127782286Y-71576035D02*
X127782286Y-71227692D01*
X127443619Y-71403073D02*
X128314476Y-71511930D01*
X128411238Y-71480483D01*
X128459619Y-71399444D01*
X128459619Y-71312358D01*
X128459619Y-71007559D02*
X127782286Y-70922893D01*
X127975810Y-70947083D02*
X127879048Y-70891445D01*
X127830667Y-70841854D01*
X127782286Y-70748721D01*
X127782286Y-70661636D01*
X128459619Y-70310873D02*
X128411238Y-70391912D01*
X128362857Y-70429407D01*
X128266095Y-70460855D01*
X127975810Y-70424569D01*
X127879048Y-70368931D01*
X127830667Y-70319340D01*
X127782286Y-70226207D01*
X127782286Y-70095579D01*
X127830667Y-70014540D01*
X127879048Y-69977045D01*
X127975810Y-69945597D01*
X128266095Y-69981883D01*
X128362857Y-70037521D01*
X128411238Y-70087112D01*
X128459619Y-70180245D01*
X128459619Y-70310873D01*
X128459619Y-69483559D02*
X128411238Y-69564598D01*
X128314476Y-69596045D01*
X127443619Y-69487188D01*
X128556381Y-69365027D02*
X128556381Y-68668341D01*
X127540381Y-68367170D02*
X127492000Y-68317579D01*
X127443619Y-68224445D01*
X127443619Y-68006731D01*
X127492000Y-67925693D01*
X127540381Y-67888198D01*
X127637143Y-67856750D01*
X127733905Y-67868845D01*
X127879048Y-67930531D01*
X128459619Y-68525616D01*
X128459619Y-67959559D01*
X113411238Y-63838476D02*
X113459619Y-63693333D01*
X113459619Y-63451429D01*
X113411238Y-63354667D01*
X113362857Y-63306286D01*
X113266095Y-63257905D01*
X113169333Y-63257905D01*
X113072571Y-63306286D01*
X113024190Y-63354667D01*
X112975810Y-63451429D01*
X112927429Y-63644952D01*
X112879048Y-63741714D01*
X112830667Y-63790095D01*
X112733905Y-63838476D01*
X112637143Y-63838476D01*
X112540381Y-63790095D01*
X112492000Y-63741714D01*
X112443619Y-63644952D01*
X112443619Y-63403048D01*
X112492000Y-63257905D01*
X112443619Y-62919238D02*
X113459619Y-62677333D01*
X112733905Y-62483810D01*
X113459619Y-62290286D01*
X112443619Y-62048381D01*
X112540381Y-61709714D02*
X112492000Y-61661333D01*
X112443619Y-61564571D01*
X112443619Y-61322667D01*
X112492000Y-61225905D01*
X112540381Y-61177524D01*
X112637143Y-61129143D01*
X112733905Y-61129143D01*
X112879048Y-61177524D01*
X113459619Y-61758095D01*
X113459619Y-61129143D01*
X112443619Y-60500190D02*
X112443619Y-60403429D01*
X112492000Y-60306667D01*
X112540381Y-60258286D01*
X112637143Y-60209905D01*
X112830667Y-60161524D01*
X113072571Y-60161524D01*
X113266095Y-60209905D01*
X113362857Y-60258286D01*
X113411238Y-60306667D01*
X113459619Y-60403429D01*
X113459619Y-60500190D01*
X113411238Y-60596952D01*
X113362857Y-60645333D01*
X113266095Y-60693714D01*
X113072571Y-60742095D01*
X112830667Y-60742095D01*
X112637143Y-60693714D01*
X112540381Y-60645333D01*
X112492000Y-60596952D01*
X112443619Y-60500190D01*
X128362857Y-57564491D02*
X128411238Y-57614082D01*
X128459619Y-57750758D01*
X128459619Y-57837844D01*
X128411238Y-57962425D01*
X128314476Y-58037415D01*
X128217714Y-58068863D01*
X128024190Y-58088216D01*
X127879048Y-58070073D01*
X127685524Y-58002339D01*
X127588762Y-57946701D01*
X127492000Y-57847520D01*
X127443619Y-57710844D01*
X127443619Y-57623758D01*
X127492000Y-57499177D01*
X127540381Y-57461682D01*
X128459619Y-57054072D02*
X128411238Y-57135111D01*
X128362857Y-57172606D01*
X128266095Y-57204054D01*
X127975810Y-57167768D01*
X127879048Y-57112130D01*
X127830667Y-57062539D01*
X127782286Y-56969406D01*
X127782286Y-56838778D01*
X127830667Y-56757739D01*
X127879048Y-56720244D01*
X127975810Y-56688796D01*
X128266095Y-56725082D01*
X128362857Y-56780720D01*
X128411238Y-56830311D01*
X128459619Y-56923444D01*
X128459619Y-57054072D01*
X127782286Y-56272721D02*
X128459619Y-56357387D01*
X127879048Y-56284816D02*
X127830667Y-56235225D01*
X127782286Y-56142092D01*
X127782286Y-56011464D01*
X127830667Y-55930425D01*
X127927429Y-55898978D01*
X128459619Y-55965501D01*
X127782286Y-55576035D02*
X127782286Y-55227692D01*
X127443619Y-55403073D02*
X128314476Y-55511930D01*
X128411238Y-55480483D01*
X128459619Y-55399444D01*
X128459619Y-55312358D01*
X128459619Y-55007559D02*
X127782286Y-54922893D01*
X127975810Y-54947083D02*
X127879048Y-54891445D01*
X127830667Y-54841854D01*
X127782286Y-54748721D01*
X127782286Y-54661636D01*
X128459619Y-54310873D02*
X128411238Y-54391912D01*
X128362857Y-54429407D01*
X128266095Y-54460855D01*
X127975810Y-54424569D01*
X127879048Y-54368931D01*
X127830667Y-54319340D01*
X127782286Y-54226207D01*
X127782286Y-54095579D01*
X127830667Y-54014540D01*
X127879048Y-53977045D01*
X127975810Y-53945597D01*
X128266095Y-53981883D01*
X128362857Y-54037521D01*
X128411238Y-54087112D01*
X128459619Y-54180245D01*
X128459619Y-54310873D01*
X128459619Y-53483559D02*
X128411238Y-53564598D01*
X128314476Y-53596045D01*
X127443619Y-53487188D01*
X128556381Y-53365027D02*
X128556381Y-52668341D01*
X127443619Y-52398616D02*
X127443619Y-51832559D01*
X127830667Y-52185740D01*
X127830667Y-52055112D01*
X127879048Y-51974074D01*
X127927429Y-51936579D01*
X128024190Y-51905131D01*
X128266095Y-51935369D01*
X128362857Y-51991007D01*
X128411238Y-52040598D01*
X128459619Y-52133731D01*
X128459619Y-52394988D01*
X128411238Y-52476027D01*
X128362857Y-52513521D01*
X142735905Y-121998619D02*
X142735905Y-122821095D01*
X142784286Y-122917857D01*
X142832667Y-122966238D01*
X142929429Y-123014619D01*
X143122952Y-123014619D01*
X143219714Y-122966238D01*
X143268095Y-122917857D01*
X143316476Y-122821095D01*
X143316476Y-121998619D01*
X144332476Y-123014619D02*
X143751905Y-123014619D01*
X144042191Y-123014619D02*
X144042191Y-121998619D01*
X143945429Y-122143762D01*
X143848667Y-122240524D01*
X143751905Y-122288905D01*
X160132185Y-121998619D02*
X160741785Y-121998619D01*
X160222899Y-123014619D01*
X161439679Y-122337286D02*
X161355013Y-123014619D01*
X161270346Y-121950238D02*
X160961917Y-122675952D01*
X161527975Y-122675952D01*
X162368594Y-122917857D02*
X162319003Y-122966238D01*
X162182327Y-123014619D01*
X162095241Y-123014619D01*
X161970660Y-122966238D01*
X161895670Y-122869476D01*
X161864222Y-122772714D01*
X161844869Y-122579190D01*
X161863012Y-122434048D01*
X161930746Y-122240524D01*
X161986384Y-122143762D01*
X162085565Y-122047000D01*
X162222241Y-121998619D01*
X162309327Y-121998619D01*
X162433908Y-122047000D01*
X162471403Y-122095381D01*
X162791927Y-123014619D02*
X162966099Y-123014619D01*
X163059231Y-122966238D01*
X163108822Y-122917857D01*
X163214051Y-122772714D01*
X163281784Y-122579190D01*
X163330165Y-122192143D01*
X163298717Y-122095381D01*
X163261222Y-122047000D01*
X163180184Y-121998619D01*
X163006013Y-121998619D01*
X162912879Y-122047000D01*
X162863288Y-122095381D01*
X162807650Y-122192143D01*
X162777412Y-122434048D01*
X162808860Y-122530810D01*
X162846355Y-122579190D01*
X162927394Y-122627571D01*
X163101565Y-122627571D01*
X163194698Y-122579190D01*
X163244289Y-122530810D01*
X163299927Y-122434048D01*
X163690602Y-122095381D02*
X163740193Y-122047000D01*
X163833327Y-121998619D01*
X164051041Y-121998619D01*
X164132079Y-122047000D01*
X164169574Y-122095381D01*
X164201022Y-122192143D01*
X164188927Y-122288905D01*
X164127241Y-122434048D01*
X163532156Y-123014619D01*
X164098213Y-123014619D01*
X164530013Y-121998619D02*
X165096070Y-121998619D01*
X164742889Y-122385667D01*
X164873517Y-122385667D01*
X164954555Y-122434048D01*
X164992050Y-122482429D01*
X165023498Y-122579190D01*
X164993260Y-122821095D01*
X164937622Y-122917857D01*
X164888031Y-122966238D01*
X164794898Y-123014619D01*
X164533641Y-123014619D01*
X164452602Y-122966238D01*
X164415108Y-122917857D01*
X175438405Y-121998619D02*
X175438405Y-122821095D01*
X175486786Y-122917857D01*
X175535167Y-122966238D01*
X175631929Y-123014619D01*
X175825452Y-123014619D01*
X175922214Y-122966238D01*
X175970595Y-122917857D01*
X176018976Y-122821095D01*
X176018976Y-121998619D01*
X176454405Y-122095381D02*
X176502786Y-122047000D01*
X176599548Y-121998619D01*
X176841452Y-121998619D01*
X176938214Y-122047000D01*
X176986595Y-122095381D01*
X177034976Y-122192143D01*
X177034976Y-122288905D01*
X176986595Y-122434048D01*
X176406024Y-123014619D01*
X177034976Y-123014619D01*
X187275713Y-121998619D02*
X187885313Y-121998619D01*
X187366427Y-123014619D01*
X188583207Y-122337286D02*
X188498541Y-123014619D01*
X188413874Y-121950238D02*
X188105445Y-122675952D01*
X188671503Y-122675952D01*
X188977512Y-123014619D02*
X189104512Y-121998619D01*
X189044035Y-122482429D02*
X189566550Y-122482429D01*
X189500027Y-123014619D02*
X189627027Y-121998619D01*
X190470065Y-122917857D02*
X190420474Y-122966238D01*
X190283798Y-123014619D01*
X190196712Y-123014619D01*
X190072131Y-122966238D01*
X189997141Y-122869476D01*
X189965693Y-122772714D01*
X189946340Y-122579190D01*
X189964483Y-122434048D01*
X190032217Y-122240524D01*
X190087855Y-122143762D01*
X190187036Y-122047000D01*
X190323712Y-121998619D01*
X190410798Y-121998619D01*
X190535379Y-122047000D01*
X190572874Y-122095381D01*
X191328827Y-123014619D02*
X190806312Y-123014619D01*
X191067570Y-123014619D02*
X191194570Y-121998619D01*
X191089341Y-122143762D01*
X190990160Y-122240524D01*
X190897026Y-122288905D01*
X191760627Y-121998619D02*
X192326684Y-121998619D01*
X191973503Y-122385667D01*
X192104131Y-122385667D01*
X192185169Y-122434048D01*
X192222664Y-122482429D01*
X192254112Y-122579190D01*
X192223874Y-122821095D01*
X192168236Y-122917857D01*
X192118645Y-122966238D01*
X192025512Y-123014619D01*
X191764255Y-123014619D01*
X191683216Y-122966238D01*
X191645722Y-122917857D01*
X192794769Y-122434048D02*
X192713731Y-122385667D01*
X192676235Y-122337286D01*
X192644788Y-122240524D01*
X192650835Y-122192143D01*
X192706473Y-122095381D01*
X192756064Y-122047000D01*
X192849198Y-121998619D01*
X193023369Y-121998619D01*
X193104407Y-122047000D01*
X193141902Y-122095381D01*
X193173350Y-122192143D01*
X193167303Y-122240524D01*
X193111664Y-122337286D01*
X193062074Y-122385667D01*
X192968940Y-122434048D01*
X192794769Y-122434048D01*
X192701635Y-122482429D01*
X192652045Y-122530810D01*
X192596407Y-122627571D01*
X192572216Y-122821095D01*
X192603664Y-122917857D01*
X192641159Y-122966238D01*
X192722198Y-123014619D01*
X192896369Y-123014619D01*
X192989502Y-122966238D01*
X193039093Y-122917857D01*
X193094731Y-122821095D01*
X193118922Y-122627571D01*
X193087474Y-122530810D01*
X193049978Y-122482429D01*
X192968940Y-122434048D01*
X112255905Y-121998619D02*
X112255905Y-122821095D01*
X112304286Y-122917857D01*
X112352667Y-122966238D01*
X112449429Y-123014619D01*
X112642952Y-123014619D01*
X112739714Y-122966238D01*
X112788095Y-122917857D01*
X112836476Y-122821095D01*
X112836476Y-121998619D01*
X113223524Y-121998619D02*
X113852476Y-121998619D01*
X113513810Y-122385667D01*
X113658952Y-122385667D01*
X113755714Y-122434048D01*
X113804095Y-122482429D01*
X113852476Y-122579190D01*
X113852476Y-122821095D01*
X113804095Y-122917857D01*
X113755714Y-122966238D01*
X113658952Y-123014619D01*
X113368667Y-123014619D01*
X113271905Y-122966238D01*
X113223524Y-122917857D01*
X121988642Y-121998619D02*
X122598242Y-121998619D01*
X122079356Y-123014619D01*
X123296136Y-122337286D02*
X123211470Y-123014619D01*
X123126803Y-121950238D02*
X122818374Y-122675952D01*
X123384432Y-122675952D01*
X123690441Y-123014619D02*
X123817441Y-121998619D01*
X123756964Y-122482429D02*
X124279479Y-122482429D01*
X124212956Y-123014619D02*
X124339956Y-121998619D01*
X125182994Y-122917857D02*
X125133403Y-122966238D01*
X124996727Y-123014619D01*
X124909641Y-123014619D01*
X124785060Y-122966238D01*
X124710070Y-122869476D01*
X124678622Y-122772714D01*
X124659269Y-122579190D01*
X124677412Y-122434048D01*
X124745146Y-122240524D01*
X124800784Y-122143762D01*
X124899965Y-122047000D01*
X125036641Y-121998619D01*
X125123727Y-121998619D01*
X125248308Y-122047000D01*
X125285803Y-122095381D01*
X125602699Y-121998619D02*
X126168756Y-121998619D01*
X125815575Y-122385667D01*
X125946203Y-122385667D01*
X126027241Y-122434048D01*
X126064736Y-122482429D01*
X126096184Y-122579190D01*
X126065946Y-122821095D01*
X126010308Y-122917857D01*
X125960717Y-122966238D01*
X125867584Y-123014619D01*
X125606327Y-123014619D01*
X125525288Y-122966238D01*
X125487794Y-122917857D01*
X126505002Y-122095381D02*
X126554593Y-122047000D01*
X126647727Y-121998619D01*
X126865441Y-121998619D01*
X126946479Y-122047000D01*
X126983974Y-122095381D01*
X127015422Y-122192143D01*
X127003327Y-122288905D01*
X126941641Y-122434048D01*
X126346556Y-123014619D01*
X126912613Y-123014619D01*
M02*
