G04 #@! TF.FileFunction,Soldermask,Bot*
%FSLAX46Y46*%
G04 Gerber Fmt 4.6, Leading zero omitted, Abs format (unit mm)*
G04 Created by KiCad (PCBNEW 4.0.7-e2-6376~58~ubuntu16.04.1) date Wed Jul 11 09:03:16 2018*
%MOMM*%
%LPD*%
G01*
G04 APERTURE LIST*
%ADD10C,0.150000*%
%ADD11R,1.524000X1.524000*%
%ADD12C,1.524000*%
%ADD13C,4.064000*%
%ADD14C,1.397000*%
%ADD15C,1.600000*%
%ADD16C,1.800000*%
%ADD17R,1.397000X1.397000*%
G04 APERTURE END LIST*
D10*
D11*
X142240000Y-128270000D03*
D12*
X142240000Y-125730000D03*
X144780000Y-128270000D03*
X144780000Y-125730000D03*
X147320000Y-128270000D03*
X147320000Y-125730000D03*
X149860000Y-128270000D03*
X149860000Y-125730000D03*
X152400000Y-128270000D03*
X152400000Y-125730000D03*
X154940000Y-128270000D03*
X154940000Y-125730000D03*
X157480000Y-128270000D03*
X157480000Y-125730000D03*
X160020000Y-128270000D03*
X160020000Y-125730000D03*
X162560000Y-128270000D03*
X162560000Y-125730000D03*
X165100000Y-128270000D03*
X165100000Y-125730000D03*
X167640000Y-128270000D03*
X167640000Y-125730000D03*
X170180000Y-128270000D03*
X170180000Y-125730000D03*
X172720000Y-128270000D03*
X172720000Y-125730000D03*
X175260000Y-125730000D03*
X175260000Y-128270000D03*
X177800000Y-125730000D03*
X177800000Y-128270000D03*
X180340000Y-128270000D03*
X180340000Y-125730000D03*
X182880000Y-128270000D03*
X182880000Y-125730000D03*
X185420000Y-128270000D03*
X185420000Y-125730000D03*
X187960000Y-128270000D03*
X187960000Y-125730000D03*
X190500000Y-128270000D03*
X190500000Y-125730000D03*
D13*
X197400000Y-125800000D03*
X107400000Y-125800000D03*
X197400000Y-55800000D03*
X107400000Y-55800000D03*
D14*
X137160000Y-113030000D03*
X137160000Y-118110000D03*
X170180000Y-113030000D03*
X170180000Y-118110000D03*
X106680000Y-113030000D03*
X106680000Y-118110000D03*
X134620000Y-118110000D03*
X134620000Y-113030000D03*
X132080000Y-115570000D03*
X132080000Y-118110000D03*
X132080000Y-113030000D03*
X198120000Y-115570000D03*
X198120000Y-118110000D03*
X198120000Y-113030000D03*
D11*
X114300000Y-125730000D03*
D12*
X114300000Y-128270000D03*
X116840000Y-125730000D03*
X116840000Y-128270000D03*
X119380000Y-125730000D03*
X119380000Y-128270000D03*
X121920000Y-125730000D03*
X121920000Y-128270000D03*
X124460000Y-125730000D03*
X124460000Y-128270000D03*
X127000000Y-125730000D03*
X127000000Y-128270000D03*
X129540000Y-125730000D03*
X129540000Y-128270000D03*
D15*
X190650000Y-54300000D03*
X190650000Y-59300000D03*
X178150000Y-54300000D03*
X178150000Y-59300000D03*
D16*
X184400000Y-61300000D03*
X184400000Y-52300000D03*
D15*
X190650000Y-70300000D03*
X190650000Y-75300000D03*
X178150000Y-70300000D03*
X178150000Y-75300000D03*
D16*
X184400000Y-77300000D03*
X184400000Y-68300000D03*
D15*
X174650000Y-70300000D03*
X174650000Y-75300000D03*
X162150000Y-70300000D03*
X162150000Y-75300000D03*
D16*
X168400000Y-77300000D03*
X168400000Y-68300000D03*
D15*
X158650000Y-70300000D03*
X158650000Y-75300000D03*
X146150000Y-70300000D03*
X146150000Y-75300000D03*
D16*
X152400000Y-77300000D03*
X152400000Y-68300000D03*
D15*
X190650000Y-86300000D03*
X190650000Y-91300000D03*
X178150000Y-86300000D03*
X178150000Y-91300000D03*
D16*
X184400000Y-93300000D03*
X184400000Y-84300000D03*
D15*
X174650000Y-86300000D03*
X174650000Y-91300000D03*
X162150000Y-86300000D03*
X162150000Y-91300000D03*
D16*
X168400000Y-93300000D03*
X168400000Y-84300000D03*
D15*
X158650000Y-86300000D03*
X158650000Y-91300000D03*
X146150000Y-86300000D03*
X146150000Y-91300000D03*
D16*
X152400000Y-93300000D03*
X152400000Y-84300000D03*
D15*
X190650000Y-102300000D03*
X190650000Y-107300000D03*
X178150000Y-102300000D03*
X178150000Y-107300000D03*
D16*
X184400000Y-109300000D03*
X184400000Y-100300000D03*
D15*
X174650000Y-102300000D03*
X174650000Y-107300000D03*
X162150000Y-102300000D03*
X162150000Y-107300000D03*
D16*
X168400000Y-109300000D03*
X168400000Y-100300000D03*
D15*
X158650000Y-102300000D03*
X158650000Y-107300000D03*
X146150000Y-102300000D03*
X146150000Y-107300000D03*
D16*
X152400000Y-109300000D03*
X152400000Y-100300000D03*
D15*
X142650000Y-102300000D03*
X142650000Y-107300000D03*
X130150000Y-102300000D03*
X130150000Y-107300000D03*
D16*
X136400000Y-109300000D03*
X136400000Y-100300000D03*
D15*
X142650000Y-86300000D03*
X142650000Y-91300000D03*
X130150000Y-86300000D03*
X130150000Y-91300000D03*
D16*
X136400000Y-93300000D03*
X136400000Y-84300000D03*
D15*
X142650000Y-70300000D03*
X142650000Y-75300000D03*
X130150000Y-70300000D03*
X130150000Y-75300000D03*
D16*
X136400000Y-77300000D03*
X136400000Y-68300000D03*
D15*
X142650000Y-54300000D03*
X142650000Y-59300000D03*
X130150000Y-54300000D03*
X130150000Y-59300000D03*
D16*
X136400000Y-61300000D03*
X136400000Y-52300000D03*
D15*
X158650000Y-54300000D03*
X158650000Y-59300000D03*
X146150000Y-54300000D03*
X146150000Y-59300000D03*
D16*
X152400000Y-61300000D03*
X152400000Y-52300000D03*
D15*
X174650000Y-54300000D03*
X174650000Y-59300000D03*
X162150000Y-54300000D03*
X162150000Y-59300000D03*
D16*
X168400000Y-61300000D03*
X168400000Y-52300000D03*
D15*
X126650000Y-102300000D03*
X126650000Y-107300000D03*
X114150000Y-102300000D03*
X114150000Y-107300000D03*
D16*
X120400000Y-109300000D03*
X120400000Y-100300000D03*
D15*
X126650000Y-86300000D03*
X126650000Y-91300000D03*
X114150000Y-86300000D03*
X114150000Y-91300000D03*
D16*
X120400000Y-93300000D03*
X120400000Y-84300000D03*
D15*
X126650000Y-70300000D03*
X126650000Y-75300000D03*
X114150000Y-70300000D03*
X114150000Y-75300000D03*
D16*
X120400000Y-77300000D03*
X120400000Y-68300000D03*
D15*
X126650000Y-54300000D03*
X126650000Y-59300000D03*
X114150000Y-54300000D03*
X114150000Y-59300000D03*
D16*
X120400000Y-61300000D03*
X120400000Y-52300000D03*
D17*
X142240000Y-120650000D03*
D14*
X144780000Y-120650000D03*
X147320000Y-120650000D03*
X149860000Y-120650000D03*
X152400000Y-120650000D03*
X154940000Y-120650000D03*
X157480000Y-120650000D03*
X160020000Y-120650000D03*
X162560000Y-120650000D03*
X165100000Y-120650000D03*
X165100000Y-113030000D03*
X162560000Y-113030000D03*
X160020000Y-113030000D03*
X157480000Y-113030000D03*
X154940000Y-113030000D03*
X152400000Y-113030000D03*
X149860000Y-113030000D03*
X147320000Y-113030000D03*
X144780000Y-113030000D03*
X142240000Y-113030000D03*
D17*
X175260000Y-120650000D03*
D14*
X177800000Y-120650000D03*
X180340000Y-120650000D03*
X182880000Y-120650000D03*
X185420000Y-120650000D03*
X187960000Y-120650000D03*
X190500000Y-120650000D03*
X193040000Y-120650000D03*
X193040000Y-113030000D03*
X190500000Y-113030000D03*
X187960000Y-113030000D03*
X185420000Y-113030000D03*
X182880000Y-113030000D03*
X180340000Y-113030000D03*
X177800000Y-113030000D03*
X175260000Y-113030000D03*
D17*
X111760000Y-120650000D03*
D14*
X114300000Y-120650000D03*
X116840000Y-120650000D03*
X119380000Y-120650000D03*
X121920000Y-120650000D03*
X124460000Y-120650000D03*
X127000000Y-120650000D03*
X127000000Y-113030000D03*
X124460000Y-113030000D03*
X121920000Y-113030000D03*
X119380000Y-113030000D03*
X116840000Y-113030000D03*
X114300000Y-113030000D03*
X111760000Y-113030000D03*
M02*
