M48
;DRILL file {KiCad 4.0.7-e2-6376~58~ubuntu16.04.1} date Wed Jul 11 09:03:26 2018
;FORMAT={-:-/ absolute / inch / decimal}
FMAT,2
INCH,TZ
T1C0.025
T2C0.032
T3C0.040
T4C0.047
T5C0.071
T6C0.120
%
G90
G05
M72
T1
X5.425Y-4.9
X5.4625Y-4.8625
X5.5Y-3.225
X5.5Y-3.849
X5.5125Y-4.225
X5.525Y-4.95
X5.65Y-3.85
X6.175Y-4.275
X6.25Y-4.725
T2
X4.2Y-4.45
X4.2Y-4.65
X4.4Y-4.45
X4.4Y-4.75
X4.5Y-4.45
X4.5Y-4.75
X4.6Y-4.45
X4.6Y-4.75
X4.7Y-4.45
X4.7Y-4.75
X4.8Y-4.45
X4.8Y-4.75
X4.9Y-4.45
X4.9Y-4.75
X5.Y-4.45
X5.Y-4.75
X5.2Y-4.45
X5.2Y-4.55
X5.2Y-4.65
X5.3Y-4.45
X5.3Y-4.65
X5.4Y-4.45
X5.4Y-4.65
X5.6Y-4.45
X5.6Y-4.75
X5.7Y-4.45
X5.7Y-4.75
X5.8Y-4.45
X5.8Y-4.75
X5.9Y-4.45
X5.9Y-4.75
X6.Y-4.45
X6.Y-4.75
X6.1Y-4.45
X6.1Y-4.75
X6.2Y-4.45
X6.2Y-4.75
X6.3Y-4.45
X6.3Y-4.75
X6.4Y-4.45
X6.4Y-4.75
X6.5Y-4.45
X6.5Y-4.75
X6.7Y-4.45
X6.7Y-4.65
X6.9Y-4.45
X6.9Y-4.75
X7.Y-4.45
X7.Y-4.75
X7.1Y-4.45
X7.1Y-4.75
X7.2Y-4.45
X7.2Y-4.75
X7.3Y-4.45
X7.3Y-4.75
X7.4Y-4.45
X7.4Y-4.75
X7.5Y-4.45
X7.5Y-4.75
X7.6Y-4.45
X7.6Y-4.75
X7.8Y-4.45
X7.8Y-4.55
X7.8Y-4.65
T3
X4.5Y-4.95
X4.5Y-5.05
X4.6Y-4.95
X4.6Y-5.05
X4.7Y-4.95
X4.7Y-5.05
X4.8Y-4.95
X4.8Y-5.05
X4.9Y-4.95
X4.9Y-5.05
X5.Y-4.95
X5.Y-5.05
X5.1Y-4.95
X5.1Y-5.05
X5.6Y-4.95
X5.6Y-5.05
X5.7Y-4.95
X5.7Y-5.05
X5.8Y-4.95
X5.8Y-5.05
X5.9Y-4.95
X5.9Y-5.05
X6.Y-4.95
X6.Y-5.05
X6.1Y-4.95
X6.1Y-5.05
X6.2Y-4.95
X6.2Y-5.05
X6.3Y-4.95
X6.3Y-5.05
X6.4Y-4.95
X6.4Y-5.05
X6.5Y-4.95
X6.5Y-5.05
X6.6Y-4.95
X6.6Y-5.05
X6.7Y-4.95
X6.7Y-5.05
X6.8Y-4.95
X6.8Y-5.05
X6.9Y-4.95
X6.9Y-5.05
X7.Y-4.95
X7.Y-5.05
X7.1Y-4.95
X7.1Y-5.05
X7.2Y-4.95
X7.2Y-5.05
X7.3Y-4.95
X7.3Y-5.05
X7.4Y-4.95
X7.4Y-5.05
X7.5Y-4.95
X7.5Y-5.05
T4
X4.4941Y-2.1378
X4.4941Y-2.3346
X4.4941Y-2.7677
X4.4941Y-2.9646
X4.4941Y-3.3976
X4.4941Y-3.5945
X4.4941Y-4.0276
X4.4941Y-4.2244
X4.9862Y-2.1378
X4.9862Y-2.3346
X4.9862Y-2.7677
X4.9862Y-2.9646
X4.9862Y-3.3976
X4.9862Y-3.5945
X4.9862Y-4.0276
X4.9862Y-4.2244
X5.124Y-2.1378
X5.124Y-2.3346
X5.124Y-2.7677
X5.124Y-2.9646
X5.124Y-3.3976
X5.124Y-3.5945
X5.124Y-4.0276
X5.124Y-4.2244
X5.6161Y-2.1378
X5.6161Y-2.3346
X5.6161Y-2.7677
X5.6161Y-2.9646
X5.6161Y-3.3976
X5.6161Y-3.5945
X5.6161Y-4.0276
X5.6161Y-4.2244
X5.7539Y-2.1378
X5.7539Y-2.3346
X5.7539Y-2.7677
X5.7539Y-2.9646
X5.7539Y-3.3976
X5.7539Y-3.5945
X5.7539Y-4.0276
X5.7539Y-4.2244
X6.2461Y-2.1378
X6.2461Y-2.3346
X6.2461Y-2.7677
X6.2461Y-2.9646
X6.2461Y-3.3976
X6.2461Y-3.5945
X6.2461Y-4.0276
X6.2461Y-4.2244
X6.3839Y-2.1378
X6.3839Y-2.3346
X6.3839Y-2.7677
X6.3839Y-2.9646
X6.3839Y-3.3976
X6.3839Y-3.5945
X6.3839Y-4.0276
X6.3839Y-4.2244
X6.876Y-2.1378
X6.876Y-2.3346
X6.876Y-2.7677
X6.876Y-2.9646
X6.876Y-3.3976
X6.876Y-3.5945
X6.876Y-4.0276
X6.876Y-4.2244
X7.0138Y-2.1378
X7.0138Y-2.3346
X7.0138Y-2.7677
X7.0138Y-2.9646
X7.0138Y-3.3976
X7.0138Y-3.5945
X7.0138Y-4.0276
X7.0138Y-4.2244
X7.5059Y-2.1378
X7.5059Y-2.3346
X7.5059Y-2.7677
X7.5059Y-2.9646
X7.5059Y-3.3976
X7.5059Y-3.5945
X7.5059Y-4.0276
X7.5059Y-4.2244
T5
X4.7402Y-2.0591
X4.7402Y-2.4134
X4.7402Y-2.689
X4.7402Y-3.0433
X4.7402Y-3.3189
X4.7402Y-3.6732
X4.7402Y-3.9488
X4.7402Y-4.3031
X5.3701Y-2.0591
X5.3701Y-2.4134
X5.3701Y-2.689
X5.3701Y-3.0433
X5.3701Y-3.3189
X5.3701Y-3.6732
X5.3701Y-3.9488
X5.3701Y-4.3031
X6.Y-2.0591
X6.Y-2.4134
X6.Y-2.689
X6.Y-3.0433
X6.Y-3.3189
X6.Y-3.6732
X6.Y-3.9488
X6.Y-4.3031
X6.6299Y-2.0591
X6.6299Y-2.4134
X6.6299Y-2.689
X6.6299Y-3.0433
X6.6299Y-3.3189
X6.6299Y-3.6732
X6.6299Y-3.9488
X6.6299Y-4.3031
X7.2598Y-2.0591
X7.2598Y-2.4134
X7.2598Y-2.689
X7.2598Y-3.0433
X7.2598Y-3.3189
X7.2598Y-3.6732
X7.2598Y-3.9488
X7.2598Y-4.3031
T6
X4.2283Y-2.1969
X4.2283Y-4.9528
X7.7717Y-2.1969
X7.7717Y-4.9528
T0
M30
